# Blender 4.0.2
# www.blender.org
mtllib knight.mtl
o Cylinder
v -0.070189 -0.014684 -1.019408
v -0.061589 0.350436 -0.797794
v 0.647743 -0.014684 -0.754154
v 0.497119 0.350436 -0.591368
v 0.967836 -0.014684 -0.058937
v 0.746221 0.350436 -0.050337
v 0.702582 -0.014684 0.658996
v 0.539796 0.350436 0.508371
v 0.007364 -0.014684 0.979088
v -0.001236 0.350436 0.757473
v -0.710568 -0.014684 0.713834
v -0.559944 0.350436 0.551048
v -1.030660 -0.014684 0.018616
v -0.809046 0.350436 0.010016
v -0.765407 -0.014684 -0.699316
v -0.602620 0.350436 -0.548692
v -0.055390 0.406996 -0.638040
v 0.388540 0.406996 -0.474022
v 0.586468 0.406996 -0.044138
v 0.422449 0.406996 0.399792
v -0.007435 0.406996 0.597720
v -0.451365 0.406996 0.433701
v -0.649292 0.406996 0.003817
v -0.485274 0.406996 -0.440113
v -0.067941 0.604658 -0.961476
v 0.608369 0.604658 -0.711600
v 0.909903 0.604658 -0.056689
v 0.660028 0.604658 0.619621
v 0.005116 0.604658 0.921155
v -0.671193 0.604658 0.671280
v -0.972728 0.604658 0.016368
v -0.722852 0.604658 -0.659941
v -0.058297 0.838654 -0.712963
v 0.439462 0.838654 -0.529056
v 0.661390 0.838654 -0.047045
v 0.477483 0.838654 0.450715
v -0.004528 0.838654 0.672642
v -0.502287 0.838654 0.488735
v -0.724215 0.838654 0.006724
v -0.540308 0.838654 -0.491035
v 0.327995 1.254010 -0.555005
v 0.497773 1.200830 -0.186015
v 0.355738 1.148425 0.233134
v -0.039386 1.133570 0.359647
v -0.392087 1.154535 0.229323
v -0.549684 1.203424 -0.148975
v -0.417714 1.251601 -0.498381
v 0.245727 1.653700 -0.546073
v 0.319726 1.865137 -0.324375
v 0.222512 1.789079 -0.077066
v -0.026601 1.769852 0.099026
v -0.287879 1.790613 -0.058788
v -0.402076 1.867306 -0.298526
v -0.304861 1.943363 -0.545834
v 0.205530 1.941829 -0.564113
v -0.344664 1.655367 -0.525032
v -0.456934 1.584091 -0.234279
v -0.324655 1.512124 0.047759
v -0.023798 1.481624 0.194945
v 0.265737 1.510457 0.026717
v 0.378006 1.581733 -0.264036
v 0.434564 2.223311 -0.398474
v 0.307063 2.042960 -0.105649
v -0.026114 1.970721 0.029648
v -0.369794 2.048911 -0.071840
v -0.522656 2.231728 -0.350661
v -0.395155 2.412080 -0.643486
v 0.281702 2.406128 -0.677295
v 0.443202 2.436924 -0.263148
v 0.315731 2.257326 0.030154
v -0.361126 2.263277 0.063963
v -0.514018 2.445341 -0.215335
v 0.215196 1.917557 0.322218
v -0.007997 1.852248 0.435301
v -0.240212 1.921562 0.344965
v 0.302786 2.112812 0.435761
v -0.312570 2.118223 0.466498
v 0.169778 1.864273 0.623106
v 0.005482 1.801367 0.737144
v -0.168186 1.867245 0.639988
v 0.293273 2.042654 0.737570
v -0.276557 2.047664 0.766033
v 0.099809 1.792763 0.919376
v 0.016088 1.760902 0.975012
v -0.072188 1.794275 0.927967
v 0.168481 1.947704 0.927758
v 0.018286 1.907354 0.981747
v -0.136238 1.950383 0.942979
v 0.304793 2.227907 0.460784
v -0.310564 2.248866 0.491521
v 0.289531 2.121796 0.762816
v -0.280300 2.126806 0.791279
v 0.308182 2.386975 0.496686
v 0.005279 2.432404 0.619689
v -0.307174 2.392385 0.527423
v 0.166450 2.289209 0.763864
v 0.008103 2.359457 0.801187
v -0.155125 2.292037 0.779927
v 0.162783 2.035870 0.924274
v 0.014979 1.996262 0.984817
v -0.137657 2.038512 0.939281
v 0.124832 2.206004 0.939230
v 0.015515 2.178624 0.981186
v -0.097173 2.207956 0.950319
v 0.417459 2.608742 -0.173819
v 0.348430 2.414005 0.137982
v -0.380165 2.420411 0.174375
v -0.476493 2.616602 -0.129166
v -0.334798 2.670960 -0.446758
v 0.243490 2.665875 -0.475643
v 0.270539 2.718001 -0.010098
v -0.319176 2.721616 0.020338
v -0.212162 2.801750 -0.176946
v 0.143249 2.799572 -0.195289
v 0.227602 2.650445 0.249464
v -0.256890 2.651340 0.275086
v 0.135254 2.934160 0.184121
v -0.004750 2.645996 0.418170
v -0.100943 2.792106 0.123101
v 0.055763 2.791817 0.114814
v -0.124577 2.829226 -0.209423
v 0.053128 2.828137 -0.218595
v -0.111797 2.998662 0.198288
v 0.076968 2.998375 0.188927
v -0.154387 3.092497 -0.218649
v 0.079129 3.091320 -0.230001
v -0.126298 2.701226 -0.542216
v 0.027842 2.699871 -0.549915
v -0.142862 2.447425 -0.774519
v 0.019579 2.445997 -0.782633
v -0.110940 1.961980 -0.643095
v 0.005005 1.961632 -0.647247
v -0.142317 2.879809 -0.732275
v 0.060230 2.878344 -0.741864
v -0.166480 2.446259 -1.012186
v 0.021467 2.444774 -1.021296
v -0.163739 2.929070 0.206089
v -0.003807 1.669225 -0.658843
v -0.104101 1.669508 -0.655269
v -0.012405 1.262100 -0.685129
v -0.114438 1.261548 -0.674823
v -0.122807 1.890521 -0.902066
v -0.006861 1.890173 -0.906219
v 0.007533 1.590941 -0.902398
v -0.092761 1.591224 -0.898823
v -0.022428 1.222555 -0.896586
v -0.124461 1.222003 -0.886280
v -0.248131 2.919642 0.232085
v 0.227415 2.920901 0.187364
v -0.090412 3.027797 0.167509
v 0.049927 3.027583 0.161690
v -0.133218 3.115227 -0.210986
v 0.065823 3.114223 -0.220662
v -0.117927 2.903890 -0.733920
v 0.034860 2.902785 -0.741153
v -0.143174 2.503319 -0.992375
v 0.001883 2.502172 -0.999406
vn 0.3022 0.4894 -0.8180
vn 0.7921 0.4894 -0.3647
vn 0.8180 0.4894 0.3022
vn 0.3647 0.4894 0.7921
vn -0.3022 0.4894 0.8180
vn -0.7921 0.4894 0.3647
vn 0.1496 0.9339 0.3248
vn -0.8180 0.4894 -0.3022
vn -0.3647 0.4894 -0.7921
vn -0.0000 -1.0000 -0.0000
vn 0.1911 -0.8342 -0.5172
vn -0.3354 0.9339 -0.1239
vn 0.3248 0.9339 -0.1496
vn -0.1239 0.9339 0.3354
vn -0.1496 0.9339 -0.3248
vn 0.1239 0.9339 -0.3354
vn 0.3354 0.9339 0.1239
vn -0.3248 0.9339 0.1496
vn -0.6693 0.7006 -0.2473
vn -0.2306 -0.8342 -0.5009
vn -0.5009 -0.8342 0.2306
vn 0.2306 -0.8342 0.5009
vn 0.5009 -0.8342 -0.2306
vn -0.5172 -0.8342 -0.1911
vn -0.1911 -0.8342 0.5172
vn 0.5172 -0.8342 0.1911
vn -0.2473 0.7006 0.6693
vn 0.6693 0.7006 0.2473
vn 0.2473 0.7006 -0.6693
vn -0.2984 0.7006 -0.6481
vn -0.6481 0.7006 0.2984
vn 0.2984 0.7006 0.6481
vn 0.6481 0.7006 -0.2984
vn -0.7583 0.5267 0.3840
vn 0.2937 0.7118 0.6380
vn 0.8812 0.2424 -0.4057
vn -0.9134 0.2657 -0.3084
vn -0.2241 0.6640 0.7133
vn 0.8001 0.5221 0.2956
vn 0.4603 0.2843 0.8410
vn -0.9361 0.1051 -0.3356
vn -0.8292 0.3067 0.4672
vn -0.4587 0.3697 0.8080
vn 0.8684 0.2857 0.4053
vn -0.8325 0.2709 0.4832
vn -0.4502 0.0266 -0.8925
vn 0.9001 0.2042 -0.3847
vn 0.9104 0.1018 -0.4010
vn -0.9343 0.1476 -0.3246
vn 0.8497 0.4042 0.3385
vn -0.4779 0.0541 -0.8768
vn -0.3471 0.4758 0.8082
vn 0.2654 0.4027 0.8760
vn -0.8699 0.4106 -0.2734
vn 0.7941 -0.3564 -0.4923
vn -0.9086 -0.2531 0.3322
vn 0.9205 -0.2754 0.2772
vn -0.2922 -0.0444 0.9553
vn -0.8139 -0.2646 -0.5173
vn 0.5411 0.2734 0.7953
vn 0.9370 -0.2132 0.2767
vn -0.9084 -0.1970 0.3689
vn -0.8620 -0.5067 -0.0157
vn -0.2414 -0.9632 -0.1184
vn -0.1448 -0.9580 -0.2477
vn 0.1343 -0.9496 -0.2833
vn -0.9403 -0.3403 -0.0092
vn 0.9752 -0.1451 0.1669
vn 0.2477 -0.9532 -0.1732
vn 0.8978 -0.4366 0.0582
vn 0.2460 -0.9539 -0.1718
vn -0.9951 -0.0037 0.0990
vn -0.2925 -0.2097 0.9330
vn 0.5651 -0.0464 0.8237
vn -0.2772 -0.9493 -0.1481
vn -0.7438 -0.6205 0.2487
vn 0.9058 -0.4077 0.1155
vn -0.0106 0.7052 0.7089
vn -0.8695 -0.1004 0.4836
vn 0.9986 0.0346 0.0395
vn 0.3142 0.8256 0.4688
vn -0.3963 0.8498 0.3477
vn 0.7826 0.5739 0.2412
vn -0.6743 0.5450 0.4983
vn 0.3750 0.0174 0.9269
vn -0.2641 0.0003 0.9645
vn 0.7523 0.1107 0.6495
vn 0.4482 0.7618 0.4678
vn 0.9228 -0.3297 0.1992
vn -0.9441 0.0423 0.3270
vn -0.9850 -0.1618 0.0605
vn 0.9930 -0.0413 0.1104
vn -0.9791 -0.0237 0.2021
vn -0.9794 -0.0270 0.2003
vn 0.9931 -0.0455 0.1080
vn 0.9827 -0.1820 -0.0335
vn 0.9084 0.1970 -0.3689
vn 0.8402 0.3438 -0.4192
vn -0.8742 0.3571 -0.3289
vn 0.5726 0.8192 -0.0328
vn -0.7570 0.4125 0.5068
vn 0.7781 0.5644 -0.2756
vn 0.2765 0.9556 0.1019
vn -0.8974 0.3848 0.2161
vn 0.9065 0.4010 0.1319
vn 0.9056 0.3493 0.2407
vn -0.2907 0.6494 0.7027
vn 0.3682 0.6471 0.6676
vn 0.4187 0.6862 0.5948
vn -0.3470 0.6882 0.6371
vn 0.3904 0.9110 0.1329
vn -0.9910 -0.1095 0.0766
vn 0.9840 0.0405 0.1733
vn 0.9953 -0.0956 -0.0183
vn -0.9927 -0.1107 0.0477
vn 0.9943 -0.0998 -0.0372
vn -0.9969 -0.0064 0.0780
vn 0.9922 -0.1003 0.0742
vn 0.0300 0.7154 0.6981
vn 0.6392 0.7501 0.1697
vn -0.6816 0.6703 -0.2936
vn -0.5710 0.4675 -0.6748
vn -0.9935 -0.1117 0.0229
vn -0.1913 -0.5713 0.7981
vn 0.2319 0.9389 0.2542
vn -0.7304 0.0764 -0.6787
vn -0.9597 -0.1392 0.2439
vn 0.9813 -0.1458 0.1257
vn 0.0426 0.5379 0.8420
vn 0.4118 0.0004 -0.9113
vn 0.3574 0.0943 -0.9292
vn -0.0490 -0.1978 -0.9790
vn -0.9981 0.0279 -0.0555
vn 0.9987 -0.0493 0.0082
vn -0.9983 -0.0255 0.0528
vn 0.9982 -0.0246 0.0544
vn 0.9989 -0.0286 -0.0379
vn -0.9970 -0.0495 0.0593
vn -0.9878 -0.1377 0.0726
vn 0.9940 -0.1059 -0.0273
vn -0.0888 -0.4230 -0.9018
vn -0.0357 -0.0145 -0.9993
vn -0.0358 -0.0144 -0.9993
vn -0.1003 -0.0252 -0.9946
vn -0.0357 -0.0129 -0.9993
vn 0.0449 -0.3017 0.9524
vn 0.0399 0.7440 0.6669
vn 0.0309 0.8860 0.4626
vn 0.0374 0.7920 0.6094
vn 0.0321 0.8717 0.4891
vn 0.4263 0.4651 -0.7759
vn -0.4010 0.6117 -0.6819
vn -0.4268 0.6256 -0.6530
vn -0.4126 -0.2613 -0.8726
vn -0.4154 -0.2631 -0.8708
vn 0.3448 -0.2753 -0.8974
vn 0.3249 -0.2636 -0.9083
vn 0.3718 0.6207 -0.6903
vn 0.3426 0.6070 -0.7170
vn 0.3572 0.8862 -0.2949
vn 0.2665 0.8918 -0.3656
vn -0.3756 0.8894 -0.2604
vn -0.2867 0.8946 -0.3426
vn 0.3193 0.8277 0.4615
vn 0.7970 0.4170 0.4369
vn -0.4158 0.1074 -0.9031
vn -0.5031 0.0111 -0.8641
vn 0.3464 0.0344 -0.9375
vn 0.3574 0.0226 -0.9337
vn 0.9640 -0.0725 -0.2557
vn 0.2706 -0.7468 0.6076
vn -0.2767 -0.1433 -0.9502
vn 0.1921 -0.9412 -0.2781
vn -0.3737 0.9122 0.1678
vn -0.2544 0.9590 0.1251
vn -0.6299 -0.0262 0.7763
vn -0.2761 0.5410 -0.7944
vn 0.1260 0.7055 -0.6974
vn -0.0021 0.2238 0.9746
vn -0.7580 0.5510 0.3490
vn 0.2188 0.6170 0.7559
vn 0.8983 0.2172 -0.3820
vn -0.8982 0.2881 -0.3319
vn -0.2507 0.6905 0.6785
vn 0.8043 0.4915 0.3340
vn 0.5176 0.3680 0.7724
vn -0.9361 0.1052 -0.3357
vn -0.8433 0.3611 0.3980
vn -0.3975 0.2863 0.8718
vn 0.8657 0.2680 0.4227
vn -0.8364 0.2887 0.4659
vn -0.4762 0.0023 -0.8793
vn 0.9062 0.1949 -0.3753
vn 0.9104 0.1019 -0.4010
vn -0.9313 0.1528 -0.3307
vn 0.8423 0.3490 0.4108
vn -0.5034 0.0341 -0.8634
vn -0.2925 0.4197 0.8592
vn 0.3869 0.5274 0.7564
vn -0.9370 0.2132 -0.2767
vn 0.7592 -0.2690 -0.5926
vn -0.9002 -0.2682 0.3430
vn 0.9349 -0.2470 0.2549
vn -0.4783 0.2877 0.8297
vn -0.8357 -0.3384 -0.4326
vn 0.3803 -0.0226 0.9246
vn -0.8973 -0.4180 0.1421
vn -0.2775 -0.9493 -0.1476
vn -0.1781 -0.9467 -0.2685
vn 0.1029 -0.9603 -0.2594
vn -0.9576 -0.1256 0.2593
vn 0.9281 -0.3591 -0.0983
vn 0.2457 -0.9539 -0.1722
vn 0.8460 -0.5246 -0.0953
vn 0.2125 -0.9672 -0.1392
vn -0.9918 -0.0790 0.1006
vn -0.4798 -0.0331 0.8768
vn 0.3814 -0.2177 0.8984
vn -0.2793 -0.9486 -0.1489
vn -0.8993 -0.3883 0.2014
vn 0.7524 -0.6345 0.1770
vn -0.3842 0.7694 0.5103
vn -0.7462 0.5869 0.3143
vn 0.9988 -0.0264 0.0412
vn 0.4466 0.8326 0.3277
vn -0.2503 0.8385 0.4840
vn 0.8944 -0.1165 0.4318
vn -0.6800 0.1153 0.7241
vn 0.3588 -0.0020 0.9334
vn -0.2808 0.0199 0.9596
vn 0.7300 0.5340 0.4266
vn 0.0937 0.7043 0.7037
vn 0.9726 0.0255 0.2312
vn -0.9040 -0.3136 0.2904
vn 0.8425 0.4022 -0.3584
vn 0.5715 0.8012 -0.1777
vn -0.8882 0.3387 0.3106
vn -0.9952 -0.0750 0.0624
vn 0.9949 -0.0990 -0.0168
vn -0.9968 -0.0794 0.0094
vn 0.9882 -0.1510 0.0263
vn -0.9951 -0.0084 0.0989
vn 0.9955 -0.0944 0.0084
vn 0.3737 0.9224 0.0975
vn 0.3850 0.0250 -0.9226
vn 0.4139 0.0499 -0.9090
vn -0.0357 -0.2013 -0.9789
vn -0.9958 0.0865 0.0310
vn 0.9986 -0.0398 -0.0348
vn -0.9949 -0.1000 -0.0142
vn 0.9962 -0.0815 -0.0320
vn 0.9983 0.0484 0.0309
vn -0.9934 -0.0584 0.0990
vn -0.2638 0.8275 0.4957
vn -0.5842 0.8022 -0.1233
vn -0.4291 0.8384 0.3362
vn -0.5706 0.8209 0.0239
vn 0.3592 -0.9244 -0.1287
vn -0.0111 0.9266 -0.3758
vn -0.0358 0.5436 -0.8386
vn -0.0136 0.9269 -0.3750
vn 0.0108 0.9746 0.2239
vn 0.0157 0.9750 0.2216
vn -0.0364 0.5434 -0.8387
vn -0.0428 0.3432 -0.9383
vn -0.7497 0.6212 0.2283
vn 0.6549 0.6888 -0.3108
vn 0.0365 0.6994 0.7138
vn 0.8799 0.4543 0.1395
vn -0.6444 0.7022 -0.3026
vn -0.5254 0.4844 -0.6995
vn 0.4657 0.4496 -0.7622
vn -0.6533 0.7216 0.2291
vt 1.000000 1.000000
vt 0.875000 0.500000
vt 1.000000 0.500000
vt 0.750000 1.000000
vt 0.750000 0.500000
vt 0.625000 0.500000
vt 0.500000 1.000000
vt 0.500000 0.500000
vt 0.375000 0.500000
vt 0.375000 1.000000
vt 0.250000 0.500000
vt 0.625000 1.000000
vt 0.125000 1.000000
vt 0.125000 0.500000
vt 0.000000 0.500000
vt 0.919706 0.080294
vt 0.580294 0.080294
vt 0.580294 0.419706
vt 0.875000 1.000000
vt 0.250000 1.000000
vt 0.000000 1.000000
vt 0.062500 1.000000
vt 0.374555 1.000000
vt 0.625426 1.000000
vt 0.000000 0.000000
vt 0.034775 0.079486
vt 0.437500 1.000000
vt 0.937500 1.000000
vt 0.130879 0.299151
vt 0.750000 0.490000
vt 0.919706 0.419706
vt 0.990000 0.250000
vt 0.750000 0.010000
vt 0.510000 0.250000
s 0
f 2/1/1 3/2/1 1/3/1
f 3/2/2 6/4/2 5/5/2
f 6/4/3 7/6/3 5/5/3
f 7/6/4 10/7/4 9/8/4
f 10/7/5 11/9/5 9/8/5
f 12/10/6 13/11/6 11/9/6
f 10/7/7 20/12/7 21/7/7
f 13/11/8 16/13/8 15/14/8
f 16/13/9 1/15/9 15/14/9
f 7/16/10 11/17/10 15/18/10
f 17/1/11 26/19/11 18/19/11
f 16/13/12 23/20/12 24/13/12
f 6/4/13 18/19/13 19/4/13
f 10/7/14 22/10/14 12/10/14
f 2/21/15 24/13/15 17/21/15
f 4/19/16 17/1/16 18/19/16
f 8/12/17 19/4/17 20/12/17
f 12/10/18 23/20/18 14/20/18
f 32/13/19 39/20/19 40/13/19
f 24/13/20 25/21/20 17/21/20
f 23/20/21 30/10/21 31/20/21
f 21/7/22 28/12/22 29/7/22
f 18/19/23 27/4/23 19/4/23
f 23/20/24 32/13/24 24/13/24
f 21/7/25 30/10/25 22/10/25
f 19/4/26 28/12/26 20/12/26
f 30/10/27 37/7/27 38/10/27
f 28/12/28 35/4/28 36/12/28
f 26/19/29 33/1/29 34/19/29
f 25/21/30 40/13/30 33/21/30
f 30/10/31 39/20/31 31/20/31
f 28/12/32 37/7/32 29/7/32
f 26/19/33 35/4/33 27/4/33
f 39/20/34 45/10/34 46/20/34
f 36/12/35 44/7/35 37/7/35
f 34/19/36 42/4/36 35/4/36
f 40/13/37 46/20/37 47/13/37
f 38/10/38 44/7/38 45/10/38
f 35/4/39 43/12/39 36/12/39
f 60/12/40 51/7/40 59/7/40
f 56/13/41 53/20/41 54/13/41
f 46/20/42 58/10/42 57/20/42
f 58/10/43 51/7/43 52/10/43
f 61/4/44 50/12/44 60/12/44
f 57/20/45 52/10/45 53/20/45
f 139/22/46 54/13/46 131/22/46
f 41/19/47 61/4/47 42/4/47
f 48/19/48 49/4/48 61/4/48
f 47/13/49 57/20/49 56/13/49
f 42/4/50 60/12/50 43/12/50
f 141/22/51 56/13/51 139/22/51
f 45/10/52 59/7/52 58/10/52
f 43/12/53 59/7/53 44/7/53
f 67/13/54 72/20/54 109/13/54
f 55/19/55 62/4/55 49/4/55
f 53/20/56 65/10/56 66/20/56
f 49/4/57 63/12/57 50/12/57
f 52/10/58 64/7/58 65/10/58
f 54/13/59 66/20/59 67/13/59
f 50/12/60 64/7/60 51/7/60
f 63/12/61 69/4/61 70/12/61
f 65/10/62 72/20/62 66/20/62
f 77/10/63 80/10/63 82/10/63
f 74/7/64 80/10/64 75/10/64
f 64/7/65 75/10/65 65/10/65
f 64/7/66 73/12/66 74/7/66
f 71/10/67 75/10/67 77/10/67
f 70/12/68 73/12/68 63/12/68
f 79/7/69 83/12/69 84/7/69
f 76/12/70 78/12/70 73/12/70
f 74/7/71 78/12/71 79/7/71
f 77/10/72 92/23/72 90/10/72
f 85/10/73 87/7/73 88/10/73
f 83/12/74 87/7/74 84/7/74
f 79/7/75 85/10/75 80/10/75
f 80/10/76 88/10/76 82/10/76
f 78/12/77 86/12/77 83/12/77
f 97/7/78 104/10/78 103/7/78
f 90/10/79 98/10/79 95/10/79
f 76/12/80 91/24/80 81/12/80
f 94/7/81 96/12/81 93/12/81
f 94/7/82 98/10/82 97/7/82
f 89/12/83 96/12/83 91/24/83
f 92/23/84 104/10/84 98/10/84
f 99/12/85 103/7/85 100/7/85
f 101/10/86 103/7/86 104/10/86
f 91/24/87 102/12/87 99/12/87
f 97/7/88 102/12/88 96/12/88
f 69/4/89 106/12/89 70/12/89
f 72/20/90 107/10/90 108/20/90
f 71/25/91 77/25/91 107/25/91
f 89/25/92 76/25/92 106/25/92
f 107/25/93 77/25/93 90/25/93
f 107/25/94 90/25/94 95/25/94
f 93/25/95 89/25/95 106/25/95
f 106/25/96 76/25/96 70/25/96
f 68/19/97 69/4/97 62/4/97
f 105/25/98 69/25/98 110/25/98
f 108/25/99 109/25/99 72/25/99
f 105/25/100 114/25/100 111/25/100
f 107/25/101 112/20/101 108/20/101
f 126/25/102 155/25/102 153/25/102
f 122/25/103 120/25/103 114/25/103
f 116/25/104 107/25/104 95/25/104
f 115/25/105 93/25/105 106/25/105
f 115/25/106 106/25/106 111/25/106
f 95/25/107 94/25/107 118/25/107
f 94/25/108 93/25/108 118/25/108
f 93/25/109 115/25/109 118/25/109
f 116/25/110 95/25/110 118/25/110
f 120/25/111 111/25/111 114/25/111
f 121/22/112 123/22/112 125/22/112
f 115/25/113 111/25/113 149/26/113
f 122/27/114 124/27/114 120/27/114
f 125/25/115 127/25/115 121/25/115
f 128/25/116 126/25/116 122/25/116
f 133/25/117 129/25/117 127/25/117
f 130/25/118 134/25/118 128/25/118
f 123/25/119 151/25/119 150/25/119
f 126/27/120 151/27/120 124/27/120
f 125/25/121 154/25/121 133/25/121
f 133/25/122 156/25/122 135/25/122
f 121/25/123 125/25/123 133/25/123
f 112/25/124 119/25/124 137/25/124
f 122/27/125 111/25/125 114/25/125
f 119/25/126 116/25/126 137/25/126
f 118/25/127 123/22/127 119/22/127
f 120/27/128 124/25/128 118/25/128
f 123/25/129 118/25/129 124/25/129
f 138/28/130 55/19/130 48/19/130
f 140/28/131 48/19/131 41/19/131
f 136/25/132 142/25/132 135/25/132
f 145/22/133 141/22/133 139/22/133
f 130/25/134 143/25/134 136/25/134
f 142/22/135 139/22/135 131/22/135
f 140/28/136 144/28/136 138/28/136
f 138/28/137 143/28/137 132/28/137
f 129/25/138 142/25/138 131/25/138
f 147/22/139 33/25/139 141/22/139
f 140/28/140 33/25/140 146/28/140
f 147/22/141 146/28/141 33/25/141
f 143/25/142 144/25/142 145/25/142
f 143/25/143 145/25/143 142/25/143
f 145/25/144 146/25/144 147/25/144
f 145/25/145 144/25/145 146/25/145
f 82/25/146 81/25/146 91/25/146
f 92/25/146 82/25/146 91/25/146
f 86/25/147 88/25/147 87/25/147
f 88/25/148 86/25/148 82/25/148
f 82/25/148 86/25/148 81/25/148
f 99/25/149 101/25/149 100/25/149
f 91/25/150 101/25/150 99/25/150
f 91/25/150 92/25/150 101/25/150
f 134/25/151 157/25/151 155/25/151
f 109/25/152 127/25/152 67/25/152
f 127/25/153 129/25/153 67/25/153
f 67/25/154 131/25/154 54/25/154
f 67/25/155 129/25/155 131/25/155
f 68/25/156 55/25/156 132/25/156
f 68/25/157 132/25/157 130/25/157
f 130/25/158 128/25/158 68/25/158
f 128/25/159 110/25/159 68/25/159
f 114/25/160 110/25/160 122/25/160
f 122/25/161 110/25/161 128/25/161
f 113/25/162 121/25/162 109/25/162
f 121/25/163 127/25/163 109/25/163
f 118/25/164 115/25/164 120/27/164
f 111/25/165 106/25/165 105/25/165
f 47/25/166 33/25/166 40/25/166
f 47/25/167 141/25/167 33/25/167
f 41/25/168 34/25/168 33/25/168
f 41/25/169 33/25/169 140/25/169
f 116/25/170 112/25/170 148/25/170
f 112/25/171 137/25/171 148/25/171
f 137/25/172 116/25/172 148/25/172
f 121/25/173 112/25/173 113/25/173
f 119/25/174 113/25/174 112/25/174
f 121/25/175 113/25/175 119/25/175
f 120/27/176 115/25/176 117/29/176
f 111/25/177 120/27/177 117/29/177
f 111/25/178 117/29/178 149/26/178
f 117/29/179 115/25/179 149/26/179
f 2/1/1 4/19/1 3/2/1
f 3/2/2 4/19/2 6/4/2
f 6/4/3 8/12/3 7/6/3
f 7/6/4 8/12/4 10/7/4
f 10/7/5 12/10/5 11/9/5
f 12/10/6 14/20/6 13/11/6
f 10/7/7 8/12/7 20/12/7
f 13/11/8 14/20/8 16/13/8
f 16/13/9 2/21/9 1/15/9
f 15/18/10 1/30/10 7/16/10
f 1/30/10 3/31/10 7/16/10
f 3/31/10 5/32/10 7/16/10
f 7/16/10 9/33/10 11/17/10
f 11/17/10 13/34/10 15/18/10
f 17/1/11 25/1/11 26/19/11
f 16/13/12 14/20/12 23/20/12
f 6/4/13 4/19/13 18/19/13
f 10/7/14 21/7/14 22/10/14
f 2/21/15 16/13/15 24/13/15
f 4/19/16 2/1/16 17/1/16
f 8/12/17 6/4/17 19/4/17
f 12/10/18 22/10/18 23/20/18
f 32/13/19 31/20/19 39/20/19
f 24/13/20 32/13/20 25/21/20
f 23/20/21 22/10/21 30/10/21
f 21/7/22 20/12/22 28/12/22
f 18/19/23 26/19/23 27/4/23
f 23/20/24 31/20/24 32/13/24
f 21/7/25 29/7/25 30/10/25
f 19/4/26 27/4/26 28/12/26
f 30/10/27 29/7/27 37/7/27
f 28/12/28 27/4/28 35/4/28
f 26/19/29 25/1/29 33/1/29
f 25/21/30 32/13/30 40/13/30
f 30/10/31 38/10/31 39/20/31
f 28/12/32 36/12/32 37/7/32
f 26/19/33 34/19/33 35/4/33
f 39/20/180 38/10/180 45/10/180
f 36/12/181 43/12/181 44/7/181
f 34/19/182 41/19/182 42/4/182
f 40/13/183 39/20/183 46/20/183
f 38/10/184 37/7/184 44/7/184
f 35/4/185 42/4/185 43/12/185
f 60/12/186 50/12/186 51/7/186
f 56/13/187 57/20/187 53/20/187
f 46/20/188 45/10/188 58/10/188
f 58/10/189 59/7/189 51/7/189
f 61/4/190 49/4/190 50/12/190
f 57/20/191 58/10/191 52/10/191
f 139/22/192 56/13/192 54/13/192
f 41/19/193 48/19/193 61/4/193
f 48/19/194 55/19/194 49/4/194
f 47/13/195 46/20/195 57/20/195
f 42/4/196 61/4/196 60/12/196
f 141/22/197 47/13/197 56/13/197
f 45/10/198 44/7/198 59/7/198
f 43/12/199 60/12/199 59/7/199
f 67/13/200 66/20/200 72/20/200
f 55/19/201 68/19/201 62/4/201
f 53/20/202 52/10/202 65/10/202
f 49/4/203 62/4/203 63/12/203
f 52/10/204 51/7/204 64/7/204
f 54/13/205 53/20/205 66/20/205
f 50/12/206 63/12/206 64/7/206
f 63/12/61 62/4/61 69/4/61
f 65/10/62 71/10/62 72/20/62
f 77/10/207 75/10/207 80/10/207
f 74/7/208 79/7/208 80/10/208
f 64/7/209 74/7/209 75/10/209
f 64/7/210 63/12/210 73/12/210
f 71/10/211 65/10/211 75/10/211
f 70/12/212 76/12/212 73/12/212
f 79/7/213 78/12/213 83/12/213
f 76/12/214 81/12/214 78/12/214
f 74/7/215 73/12/215 78/12/215
f 77/10/216 82/10/216 92/23/216
f 85/10/217 84/7/217 87/7/217
f 83/12/218 86/12/218 87/7/218
f 79/7/219 84/7/219 85/10/219
f 80/10/220 85/10/220 88/10/220
f 78/12/221 81/12/221 86/12/221
f 97/7/222 98/10/222 104/10/222
f 90/10/223 92/23/223 98/10/223
f 76/12/224 89/12/224 91/24/224
f 94/7/225 97/7/225 96/12/225
f 94/7/226 95/10/226 98/10/226
f 89/12/227 93/12/227 96/12/227
f 92/23/228 101/10/228 104/10/228
f 99/12/229 102/12/229 103/7/229
f 101/10/230 100/7/230 103/7/230
f 91/24/231 96/12/231 102/12/231
f 97/7/232 103/7/232 102/12/232
f 69/4/233 105/4/233 106/12/233
f 72/20/234 71/10/234 107/10/234
f 68/19/235 110/19/235 69/4/235
f 105/25/236 110/25/236 114/25/236
f 107/25/237 116/25/237 112/20/237
f 121/22/238 119/22/238 123/22/238
f 122/27/239 126/27/239 124/27/239
f 125/25/240 133/25/240 127/25/240
f 128/25/241 134/25/241 126/25/241
f 133/25/242 135/25/242 129/25/242
f 130/25/243 136/25/243 134/25/243
f 122/27/244 120/27/244 111/25/244
f 138/28/245 132/28/245 55/19/245
f 140/28/246 138/28/246 48/19/246
f 136/25/247 143/25/247 142/25/247
f 145/22/248 147/22/248 141/22/248
f 130/25/249 132/25/249 143/25/249
f 142/22/250 145/22/250 139/22/250
f 140/28/251 146/28/251 144/28/251
f 138/28/252 144/28/252 143/28/252
f 129/25/253 135/25/253 142/25/253
f 116/25/254 118/25/254 119/22/254
f 113/13/255 109/13/255 108/20/255
f 112/20/256 116/25/256 119/22/256
f 113/13/257 108/20/257 112/20/257
f 121/25/258 119/25/258 112/25/258
f 153/25/259 155/25/259 154/25/259
f 155/25/260 157/25/260 154/25/260
f 153/25/261 154/25/261 152/25/261
f 152/25/262 150/25/262 151/25/262
f 153/25/263 152/25/263 151/25/263
f 154/25/264 157/25/264 156/25/264
f 136/25/265 156/25/265 157/25/265
f 125/22/266 150/22/266 152/22/266
f 126/25/267 134/25/267 155/25/267
f 123/25/268 124/25/268 151/25/268
f 126/27/269 153/27/269 151/27/269
f 125/25/270 152/25/270 154/25/270
f 133/25/271 154/25/271 156/25/271
f 134/25/272 136/25/272 157/25/272
f 136/25/265 135/25/265 156/25/265
f 125/22/273 123/22/273 150/22/273
l 131 132
