# Blender 4.0.2
# www.blender.org
mtllib pawn.mtl
o Cylinder
v 0.000000 0.000358 -1.000000
v 0.000000 0.342515 -0.772666
v 0.707107 0.000358 -0.707107
v 0.546357 0.342515 -0.546357
v 1.000000 0.000358 0.000000
v 0.772666 0.342515 0.000000
v 0.707107 0.000358 0.707107
v 0.546357 0.342515 0.546357
v 0.000000 0.000358 1.000000
v 0.000000 0.342515 0.772666
v -0.707107 0.000358 0.707107
v -0.546357 0.342515 0.546357
v -1.000000 0.000358 0.000000
v -0.772666 0.342515 0.000000
v -0.707107 0.000358 -0.707107
v -0.546357 0.342515 -0.546357
v 0.000000 0.410710 -0.663404
v 0.469097 0.410710 -0.469097
v 0.663404 0.410710 0.000000
v 0.469097 0.410710 0.469097
v 0.000000 0.410710 0.663404
v -0.469097 0.410710 0.469097
v -0.663404 0.410710 0.000000
v -0.469097 0.410710 -0.469097
v -0.000000 0.684847 -0.835324
v 0.590663 0.684847 -0.590663
v 0.835324 0.684847 0.000000
v 0.590663 0.684847 0.590663
v -0.000000 0.684847 0.835324
v -0.590663 0.684847 0.590663
v -0.835324 0.684847 0.000000
v -0.590663 0.684847 -0.590663
v -0.000000 0.977825 -0.643584
v 0.455083 0.977825 -0.455083
v 0.643584 0.977825 -0.000000
v 0.455083 0.977825 0.455083
v -0.000000 0.977825 0.643584
v -0.455083 0.977825 0.455083
v -0.643584 0.977825 -0.000000
v -0.455083 0.977825 -0.455083
v -0.000000 1.233714 -0.496035
v 0.350750 1.233714 -0.350750
v 0.496035 1.233714 -0.000000
v 0.350750 1.233714 0.350750
v -0.000000 1.233714 0.496035
v -0.350750 1.233714 0.350750
v -0.496035 1.233714 -0.000000
v -0.350750 1.233714 -0.350750
v 0.000000 2.219362 -0.338631
v 0.239448 2.219362 -0.239448
v 0.338631 2.219362 -0.000000
v 0.239448 2.219362 0.239448
v 0.000000 2.219362 0.338631
v -0.239448 2.219362 0.239448
v -0.338631 2.219362 -0.000000
v -0.239448 2.219362 -0.239448
v 0.000000 2.302512 -0.403154
v 0.285073 2.302512 -0.285073
v 0.403154 2.302512 -0.000000
v 0.285073 2.302512 0.285073
v 0.000000 2.302512 0.403154
v -0.285073 2.302512 0.285073
v -0.403154 2.302512 -0.000000
v -0.285073 2.302512 -0.285073
v 0.000000 2.417619 -0.302762
v 0.214085 2.417619 -0.214085
v 0.302762 2.417619 -0.000000
v 0.214085 2.417619 0.214085
v 0.000000 2.417619 0.302762
v -0.214085 2.417619 0.214085
v -0.302762 2.417619 -0.000000
v -0.214085 2.417619 -0.214085
v 0.000000 2.552773 -0.409236
v 0.289373 2.552773 -0.289373
v 0.409236 2.552773 -0.000000
v 0.289373 2.552773 0.289373
v 0.000000 2.552773 0.409236
v -0.289373 2.552773 0.289373
v -0.409236 2.552773 -0.000000
v -0.289373 2.552773 -0.289373
v 0.000000 2.813614 -0.512658
v 0.362504 2.813614 -0.362504
v 0.512658 2.813614 -0.000000
v 0.362504 2.813614 0.362504
v 0.000000 2.813614 0.512658
v -0.362504 2.813614 0.362504
v -0.512658 2.813614 -0.000000
v -0.362504 2.813614 -0.362504
v 0.000000 3.083220 -0.448342
v 0.317026 3.083220 -0.317026
v 0.448342 3.083220 -0.000000
v 0.317026 3.083220 0.317026
v 0.000000 3.083220 0.448342
v -0.317026 3.083220 0.317026
v -0.448342 3.083220 -0.000000
v -0.317026 3.083220 -0.317026
v 0.000000 3.361647 -0.265926
v 0.188038 3.361647 -0.188038
v 0.265926 3.361647 -0.000000
v 0.188038 3.361647 0.188038
v 0.000000 3.361647 0.265926
v -0.188038 3.361647 0.188038
v -0.265926 3.361647 -0.000000
v -0.188038 3.361647 -0.188038
vn 0.3261 0.5231 -0.7874
vn 0.7874 0.5231 -0.3261
vn 0.7874 0.5231 0.3261
vn 0.3261 0.5231 0.7874
vn -0.3261 0.5231 0.7874
vn -0.7874 0.5231 0.3261
vn 0.2142 0.8286 0.5172
vn -0.7874 0.5231 -0.3261
vn -0.3261 0.5231 -0.7874
vn -0.0000 -1.0000 -0.0000
vn -0.3311 -0.5013 0.7994
vn -0.5172 0.8286 -0.2142
vn 0.5172 0.8286 -0.2142
vn -0.2142 0.8286 0.5172
vn -0.2142 0.8286 -0.5172
vn 0.2142 0.8286 -0.5172
vn 0.5172 0.8286 0.2142
vn -0.5172 0.8286 0.2142
vn -0.7906 0.5174 -0.3275
vn 0.7994 -0.5013 0.3311
vn 0.3311 -0.5013 -0.7994
vn -0.3311 -0.5013 -0.7994
vn -0.7994 -0.5013 0.3311
vn 0.3311 -0.5013 0.7994
vn 0.7994 -0.5013 -0.3311
vn -0.7994 -0.5013 -0.3311
vn -0.8154 0.4702 0.3377
vn -0.3275 0.5174 0.7906
vn 0.7906 0.5174 0.3275
vn 0.3275 0.5174 -0.7906
vn -0.3275 0.5174 -0.7906
vn -0.7906 0.5174 0.3275
vn 0.3275 0.5174 0.7906
vn 0.7906 0.5174 -0.3275
vn -0.9140 0.1460 0.3786
vn 0.3377 0.4702 0.8154
vn 0.8154 0.4702 -0.3377
vn -0.8154 0.4702 -0.3377
vn -0.3377 0.4702 0.8154
vn 0.8154 0.4702 0.3377
vn 0.3377 0.4702 -0.8154
vn -0.3377 0.4702 -0.8154
vn 0.3110 -0.5827 -0.7509
vn 0.3786 0.1460 0.9140
vn 0.9140 0.1460 -0.3786
vn -0.9140 0.1460 -0.3786
vn -0.3786 0.1460 0.9140
vn 0.9140 0.1460 0.3786
vn 0.3786 0.1460 -0.9140
vn -0.3786 0.1460 -0.9140
vn -0.7194 0.6274 -0.2980
vn -0.3110 -0.5827 -0.7509
vn -0.7509 -0.5827 0.3110
vn 0.3110 -0.5827 0.7509
vn 0.7509 -0.5827 -0.3110
vn -0.7509 -0.5827 -0.3110
vn -0.3110 -0.5827 0.7509
vn 0.7509 -0.5827 0.3110
vn 0.7470 -0.5885 -0.3094
vn -0.2980 0.6274 0.7194
vn 0.7194 0.6274 0.2980
vn 0.2980 0.6274 -0.7194
vn -0.2980 0.6274 -0.7194
vn -0.7194 0.6274 0.2980
vn 0.2980 0.6274 0.7194
vn 0.7194 0.6274 -0.2980
vn -0.3593 -0.3440 -0.8675
vn -0.7470 -0.5885 -0.3094
vn -0.3094 -0.5885 0.7470
vn 0.7470 -0.5885 0.3094
vn 0.3094 -0.5885 -0.7470
vn -0.3094 -0.5885 -0.7470
vn -0.7470 -0.5885 0.3094
vn 0.3094 -0.5885 0.7470
vn 0.9022 0.2152 0.3737
vn -0.8675 -0.3440 0.3593
vn 0.3593 -0.3440 0.8675
vn 0.8675 -0.3440 -0.3593
vn -0.8675 -0.3440 -0.3593
vn -0.3593 -0.3440 0.8675
vn 0.8675 -0.3440 0.3593
vn 0.3593 -0.3440 -0.8675
vn -0.7904 0.5178 -0.3274
vn 0.3737 0.2152 -0.9022
vn -0.3737 0.2152 -0.9022
vn -0.9022 0.2152 0.3737
vn 0.3737 0.2152 0.9022
vn 0.9022 0.2152 -0.3737
vn -0.9022 0.2152 -0.3737
vn -0.3737 0.2152 0.9022
vn -0.0000 1.0000 -0.0000
vn -0.3274 0.5178 0.7904
vn 0.7904 0.5178 0.3274
vn 0.3274 0.5178 -0.7904
vn -0.3274 0.5178 -0.7904
vn -0.7904 0.5178 0.3274
vn 0.3274 0.5178 0.7904
vn 0.7904 0.5178 -0.3274
vt 1.000000 1.000000
vt 0.875000 0.500000
vt 1.000000 0.500000
vt 0.875000 1.000000
vt 0.750000 0.500000
vt 0.750000 1.000000
vt 0.625000 0.500000
vt 0.625000 1.000000
vt 0.500000 0.500000
vt 0.500000 1.000000
vt 0.375000 0.500000
vt 0.375000 1.000000
vt 0.250000 0.500000
vt 0.250000 1.000000
vt 0.125000 0.500000
vt 0.125000 1.000000
vt 0.000000 0.500000
vt 0.919706 0.080294
vt 0.580294 0.080294
vt 0.580294 0.419706
vt 0.000000 1.000000
vt 0.419706 0.080294
vt 0.490000 0.250000
vt 0.010000 0.250000
vt 0.750000 0.490000
vt 0.919706 0.419706
vt 0.990000 0.250000
vt 0.750000 0.010000
vt 0.510000 0.250000
vt 0.419706 0.419706
vt 0.250000 0.490000
vt 0.080294 0.419706
vt 0.080294 0.080294
vt 0.250000 0.010000
s 0
f 2/1/1 3/2/1 1/3/1
f 4/4/2 5/5/2 3/2/2
f 6/6/3 7/7/3 5/5/3
f 8/8/4 9/9/4 7/7/4
f 10/10/5 11/11/5 9/9/5
f 12/12/6 13/13/6 11/11/6
f 8/8/7 21/10/7 10/10/7
f 14/14/8 15/15/8 13/13/8
f 16/16/9 1/17/9 15/15/9
f 7/18/10 11/19/10 15/20/10
f 22/12/11 29/10/11 30/12/11
f 16/16/12 23/14/12 24/16/12
f 4/4/13 19/6/13 6/6/13
f 10/10/14 22/12/14 12/12/14
f 16/16/15 17/21/15 2/21/15
f 4/4/16 17/1/16 18/4/16
f 6/6/17 20/8/17 8/8/17
f 12/12/18 23/14/18 14/14/18
f 31/14/19 40/16/19 32/16/19
f 20/8/20 27/6/20 28/8/20
f 17/1/21 26/4/21 18/4/21
f 24/16/22 25/21/22 17/21/22
f 22/12/23 31/14/23 23/14/23
f 20/8/24 29/10/24 21/10/24
f 18/4/25 27/6/25 19/6/25
f 23/14/26 32/16/26 24/16/26
f 38/12/27 47/14/27 39/14/27
f 29/10/28 38/12/28 30/12/28
f 27/6/29 36/8/29 28/8/29
f 25/1/30 34/4/30 26/4/30
f 32/16/31 33/21/31 25/21/31
f 30/12/32 39/14/32 31/14/32
f 28/8/33 37/10/33 29/10/33
f 26/4/34 35/6/34 27/6/34
f 46/12/35 55/14/35 47/14/35
f 36/8/36 45/10/36 37/10/36
f 34/4/37 43/6/37 35/6/37
f 39/14/38 48/16/38 40/16/38
f 37/10/39 46/12/39 38/12/39
f 35/6/40 44/8/40 36/8/40
f 33/1/41 42/4/41 34/4/41
f 40/16/42 41/21/42 33/21/42
f 49/1/43 58/4/43 50/4/43
f 44/8/44 53/10/44 45/10/44
f 42/4/45 51/6/45 43/6/45
f 47/14/46 56/16/46 48/16/46
f 45/10/47 54/12/47 46/12/47
f 43/6/48 52/8/48 44/8/48
f 41/1/49 50/4/49 42/4/49
f 48/16/50 49/21/50 41/21/50
f 63/14/51 72/16/51 64/16/51
f 56/16/52 57/21/52 49/21/52
f 54/12/53 63/14/53 55/14/53
f 52/8/54 61/10/54 53/10/54
f 50/4/55 59/6/55 51/6/55
f 55/14/56 64/16/56 56/16/56
f 53/10/57 62/12/57 54/12/57
f 51/6/58 60/8/58 52/8/58
f 67/6/59 74/4/59 75/6/59
f 61/10/60 70/12/60 62/12/60
f 59/6/61 68/8/61 60/8/61
f 57/1/62 66/4/62 58/4/62
f 64/16/63 65/21/63 57/21/63
f 62/12/64 71/14/64 63/14/64
f 60/8/65 69/10/65 61/10/65
f 58/4/66 67/6/66 59/6/66
f 80/16/67 81/21/67 73/21/67
f 72/16/68 79/14/68 80/16/68
f 69/10/69 78/12/69 70/12/69
f 67/6/70 76/8/70 68/8/70
f 66/4/71 73/1/71 74/4/71
f 65/21/72 80/16/72 73/21/72
f 70/12/73 79/14/73 71/14/73
f 68/8/74 77/10/74 69/10/74
f 83/6/75 92/8/75 84/8/75
f 78/12/76 87/14/76 79/14/76
f 76/8/77 85/10/77 77/10/77
f 74/4/78 83/6/78 75/6/78
f 79/14/79 88/16/79 80/16/79
f 77/10/80 86/12/80 78/12/80
f 75/6/81 84/8/81 76/8/81
f 73/1/82 82/4/82 74/4/82
f 96/16/83 103/14/83 104/16/83
f 81/1/84 90/4/84 82/4/84
f 88/16/85 89/21/85 81/21/85
f 86/12/86 95/14/86 87/14/86
f 84/8/87 93/10/87 85/10/87
f 82/4/88 91/6/88 83/6/88
f 87/14/89 96/16/89 88/16/89
f 85/10/90 94/12/90 86/12/90
f 100/22/91 99/23/91 103/24/91
f 93/10/92 102/12/92 94/12/92
f 91/6/93 100/8/93 92/8/93
f 89/1/94 98/4/94 90/4/94
f 89/21/95 104/16/95 97/21/95
f 94/12/96 103/14/96 95/14/96
f 92/8/97 101/10/97 93/10/97
f 91/6/98 98/4/98 99/6/98
f 2/1/1 4/4/1 3/2/1
f 4/4/2 6/6/2 5/5/2
f 6/6/3 8/8/3 7/7/3
f 8/8/4 10/10/4 9/9/4
f 10/10/5 12/12/5 11/11/5
f 12/12/6 14/14/6 13/13/6
f 8/8/7 20/8/7 21/10/7
f 14/14/8 16/16/8 15/15/8
f 16/16/9 2/21/9 1/17/9
f 15/20/10 1/25/10 3/26/10
f 3/26/10 5/27/10 7/18/10
f 7/18/10 9/28/10 11/19/10
f 11/19/10 13/29/10 15/20/10
f 15/20/10 3/26/10 7/18/10
f 22/12/11 21/10/11 29/10/11
f 16/16/12 14/14/12 23/14/12
f 4/4/13 18/4/13 19/6/13
f 10/10/14 21/10/14 22/12/14
f 16/16/15 24/16/15 17/21/15
f 4/4/16 2/1/16 17/1/16
f 6/6/17 19/6/17 20/8/17
f 12/12/18 22/12/18 23/14/18
f 31/14/19 39/14/19 40/16/19
f 20/8/20 19/6/20 27/6/20
f 17/1/21 25/1/21 26/4/21
f 24/16/22 32/16/22 25/21/22
f 22/12/23 30/12/23 31/14/23
f 20/8/24 28/8/24 29/10/24
f 18/4/25 26/4/25 27/6/25
f 23/14/26 31/14/26 32/16/26
f 38/12/27 46/12/27 47/14/27
f 29/10/28 37/10/28 38/12/28
f 27/6/29 35/6/29 36/8/29
f 25/1/30 33/1/30 34/4/30
f 32/16/31 40/16/31 33/21/31
f 30/12/32 38/12/32 39/14/32
f 28/8/33 36/8/33 37/10/33
f 26/4/34 34/4/34 35/6/34
f 46/12/35 54/12/35 55/14/35
f 36/8/36 44/8/36 45/10/36
f 34/4/37 42/4/37 43/6/37
f 39/14/38 47/14/38 48/16/38
f 37/10/39 45/10/39 46/12/39
f 35/6/40 43/6/40 44/8/40
f 33/1/41 41/1/41 42/4/41
f 40/16/42 48/16/42 41/21/42
f 49/1/43 57/1/43 58/4/43
f 44/8/44 52/8/44 53/10/44
f 42/4/45 50/4/45 51/6/45
f 47/14/46 55/14/46 56/16/46
f 45/10/47 53/10/47 54/12/47
f 43/6/48 51/6/48 52/8/48
f 41/1/49 49/1/49 50/4/49
f 48/16/50 56/16/50 49/21/50
f 63/14/51 71/14/51 72/16/51
f 56/16/52 64/16/52 57/21/52
f 54/12/53 62/12/53 63/14/53
f 52/8/54 60/8/54 61/10/54
f 50/4/55 58/4/55 59/6/55
f 55/14/56 63/14/56 64/16/56
f 53/10/57 61/10/57 62/12/57
f 51/6/58 59/6/58 60/8/58
f 67/6/59 66/4/59 74/4/59
f 61/10/60 69/10/60 70/12/60
f 59/6/61 67/6/61 68/8/61
f 57/1/62 65/1/62 66/4/62
f 64/16/63 72/16/63 65/21/63
f 62/12/64 70/12/64 71/14/64
f 60/8/65 68/8/65 69/10/65
f 58/4/66 66/4/66 67/6/66
f 80/16/67 88/16/67 81/21/67
f 72/16/68 71/14/68 79/14/68
f 69/10/69 77/10/69 78/12/69
f 67/6/70 75/6/70 76/8/70
f 66/4/71 65/1/71 73/1/71
f 65/21/72 72/16/72 80/16/72
f 70/12/73 78/12/73 79/14/73
f 68/8/74 76/8/74 77/10/74
f 83/6/75 91/6/75 92/8/75
f 78/12/76 86/12/76 87/14/76
f 76/8/77 84/8/77 85/10/77
f 74/4/78 82/4/78 83/6/78
f 79/14/79 87/14/79 88/16/79
f 77/10/80 85/10/80 86/12/80
f 75/6/81 83/6/81 84/8/81
f 73/1/82 81/1/82 82/4/82
f 96/16/83 95/14/83 103/14/83
f 81/1/84 89/1/84 90/4/84
f 88/16/85 96/16/85 89/21/85
f 86/12/86 94/12/86 95/14/86
f 84/8/87 92/8/87 93/10/87
f 82/4/88 90/4/88 91/6/88
f 87/14/89 95/14/89 96/16/89
f 85/10/90 93/10/90 94/12/90
f 99/23/91 98/30/91 97/31/91
f 97/31/91 104/32/91 99/23/91
f 104/32/91 103/24/91 99/23/91
f 103/24/91 102/33/91 101/34/91
f 101/34/91 100/22/91 103/24/91
f 93/10/92 101/10/92 102/12/92
f 91/6/93 99/6/93 100/8/93
f 89/1/94 97/1/94 98/4/94
f 89/21/95 96/16/95 104/16/95
f 94/12/96 102/12/96 103/14/96
f 92/8/97 100/8/97 101/10/97
f 91/6/98 90/4/98 98/4/98
