# Blender 4.0.2
# www.blender.org
mtllib queen.mtl
o Cylinder
v 0.000000 0.000535 -0.500000
v 0.000000 0.144659 -0.418703
v 0.353553 0.000535 -0.353553
v 0.296067 0.144659 -0.296067
v 0.500000 0.000535 0.000000
v 0.418703 0.144659 0.000000
v 0.353553 0.000535 0.353553
v 0.296067 0.144659 0.296067
v 0.000000 0.000535 0.500000
v 0.000000 0.144659 0.418703
v -0.353553 0.000535 0.353553
v -0.296067 0.144659 0.296067
v -0.500000 0.000535 0.000000
v -0.418703 0.144659 0.000000
v -0.353553 0.000535 -0.353553
v -0.296067 0.144659 -0.296067
v -0.000000 0.181344 -0.341612
v 0.241556 0.181344 -0.241556
v 0.341612 0.181344 0.000000
v 0.241556 0.181344 0.241556
v -0.000000 0.181344 0.341612
v -0.241556 0.181344 0.241556
v -0.341612 0.181344 0.000000
v -0.241556 0.181344 -0.241556
v -0.000000 0.315979 -0.508294
v 0.359418 0.315979 -0.359418
v 0.508294 0.315979 0.000000
v 0.359418 0.315979 0.359418
v -0.000000 0.315979 0.508294
v -0.359418 0.315979 0.359418
v -0.508294 0.315979 0.000000
v -0.359418 0.315979 -0.359418
v -0.000000 0.416820 -0.409445
v 0.289521 0.416820 -0.289521
v 0.409445 0.416820 0.000000
v 0.288412 0.422522 0.303733
v -0.000000 0.416820 0.409445
v -0.289521 0.416820 0.289521
v -0.409445 0.416820 0.000000
v -0.289521 0.416820 -0.289521
v -0.000000 0.488357 -0.400812
v 0.283417 0.488357 -0.283417
v 0.400812 0.488357 0.000000
v 0.282899 0.491018 0.290049
v -0.000000 0.488357 0.400812
v -0.283417 0.488357 0.283417
v -0.400812 0.488357 0.000000
v -0.283417 0.488357 -0.283417
v -0.000000 0.527873 -0.290323
v 0.205289 0.527873 -0.205289
v 0.290323 0.527873 -0.000000
v 0.205289 0.527873 0.205289
v -0.000000 0.527873 0.290323
v -0.205289 0.527873 0.205289
v -0.290323 0.527873 -0.000000
v -0.205289 0.527873 -0.205289
v -0.000000 1.584891 -0.202261
v 0.143020 1.584891 -0.143020
v 0.202261 1.584891 -0.000000
v 0.143020 1.584891 0.143020
v -0.000000 1.584891 0.202261
v -0.143020 1.584891 0.143020
v -0.202261 1.584891 -0.000000
v -0.143020 1.584891 -0.143020
v -0.000000 1.670201 -0.391989
v 0.277178 1.670201 -0.277178
v 0.391989 1.670201 -0.000000
v 0.277178 1.670201 0.277178
v -0.000000 1.670201 0.391989
v -0.277178 1.670201 0.277178
v -0.391989 1.670201 -0.000000
v -0.277178 1.670201 -0.277178
v 0.000000 1.730795 -0.273828
v 0.193626 1.730795 -0.193626
v 0.273828 1.730795 -0.000000
v 0.193626 1.730795 0.193626
v 0.000000 1.730795 0.273828
v -0.193626 1.730795 0.193626
v -0.273828 1.730795 -0.000000
v -0.193626 1.730795 -0.193626
v -0.000000 1.771468 -0.245448
v 0.173558 1.771468 -0.173558
v 0.245448 1.771468 -0.000000
v 0.173558 1.771468 0.173558
v -0.000000 1.771468 0.245448
v -0.173558 1.771468 0.173558
v -0.245448 1.771468 -0.000000
v -0.173558 1.771468 -0.173558
v -0.000000 1.786183 -0.204641
v 0.144703 1.786183 -0.144703
v 0.204641 1.786183 -0.000000
v 0.144703 1.786183 0.144703
v -0.000000 1.786183 0.204641
v -0.144703 1.786183 0.144703
v -0.204641 1.786183 -0.000000
v -0.144703 1.786183 -0.144703
v 0.000000 2.091189 -0.351345
v 0.248438 2.091189 -0.248438
v 0.351345 2.091189 -0.000000
v 0.248438 2.091189 0.248438
v 0.000000 2.091189 0.351345
v -0.248438 2.091189 0.248438
v -0.351345 2.091189 -0.000000
v -0.248438 2.091189 -0.248438
v 0.000000 2.156517 -0.351345
v 0.248438 2.156517 -0.248438
v 0.351345 2.156517 -0.000000
v 0.248438 2.156517 0.248438
v 0.000000 2.156517 0.351345
v -0.248438 2.156517 0.248438
v -0.351345 2.156517 -0.000000
v -0.248438 2.156517 -0.248438
v 0.000000 2.265573 -0.055849
v 0.039491 2.265573 -0.039491
v 0.055849 2.265573 0.000000
v 0.039491 2.265573 0.039491
v 0.000000 2.265573 0.055849
v -0.039491 2.265573 0.039491
v -0.055849 2.265573 0.000000
v -0.039491 2.265573 -0.039491
vn 0.3394 0.4621 -0.8193
vn 0.8193 0.4621 -0.3394
vn 0.8193 0.4621 0.3394
vn 0.3394 0.4621 0.8193
vn -0.3394 0.4621 0.8193
vn -0.8193 0.4621 0.3394
vn 0.1752 0.8890 0.4230
vn -0.8193 0.4621 -0.3394
vn -0.3394 0.4621 -0.8193
vn -0.0000 -1.0000 -0.0000
vn -0.2519 -0.7528 -0.6081
vn -0.4230 0.8890 -0.1752
vn 0.4230 0.8890 -0.1752
vn -0.1752 0.8890 0.4230
vn -0.1752 0.8890 -0.4230
vn 0.1752 0.8890 -0.4230
vn 0.4230 0.8890 0.1752
vn -0.4230 0.8890 0.1752
vn -0.2837 0.6713 0.6848
vn -0.6081 -0.7528 0.2519
vn 0.2519 -0.7528 0.6081
vn 0.6081 -0.7528 -0.2519
vn -0.6081 -0.7528 -0.2519
vn -0.2519 -0.7528 0.6081
vn 0.6081 -0.7528 0.2519
vn 0.2519 -0.7528 -0.6081
vn -0.9182 0.1108 -0.3803
vn 0.7262 0.6290 0.2776
vn 0.2837 0.6713 -0.6848
vn -0.2837 0.6713 -0.6848
vn -0.6848 0.6713 0.2837
vn 0.2406 0.6795 0.6931
vn 0.6848 0.6713 -0.2837
vn -0.6848 0.6713 -0.2837
vn -0.3335 0.9326 0.1381
vn -0.3803 0.1108 0.9182
vn 0.9199 0.1467 0.3638
vn 0.3803 0.1108 -0.9182
vn -0.3803 0.1108 -0.9182
vn -0.9182 0.1108 0.3803
vn 0.3400 0.1127 0.9337
vn 0.9182 0.1108 -0.3803
vn 0.3816 0.0767 -0.9212
vn 0.1221 0.9346 0.3342
vn 0.3335 0.9326 -0.1381
vn -0.3335 0.9326 -0.1381
vn -0.1381 0.9326 0.3335
vn 0.3160 0.9411 0.1198
vn 0.1381 0.9326 -0.3335
vn -0.1381 0.9326 -0.3335
vn 0.4043 -0.8992 -0.1675
vn -0.3816 0.0767 -0.9212
vn -0.9212 0.0767 0.3816
vn 0.3816 0.0767 0.9212
vn 0.9212 0.0767 -0.3816
vn -0.9212 0.0767 -0.3816
vn -0.3816 0.0767 0.9212
vn 0.9212 0.0767 0.3816
vn -0.1857 0.8743 -0.4484
vn -0.4043 -0.8992 -0.1675
vn -0.1675 -0.8992 0.4043
vn 0.4043 -0.8992 0.1675
vn 0.1675 -0.8992 -0.4043
vn -0.1675 -0.8992 -0.4043
vn -0.4043 -0.8992 0.1675
vn 0.1675 -0.8992 0.4043
vn -0.3216 0.5418 0.7765
vn -0.4484 0.8743 0.1857
vn 0.1857 0.8743 0.4484
vn 0.4484 0.8743 -0.1857
vn -0.4484 0.8743 -0.1857
vn -0.1857 0.8743 0.4484
vn 0.4484 0.8743 0.1857
vn 0.1857 0.8743 -0.4484
vn -0.3359 0.9316 -0.1391
vn 0.7765 0.5418 0.3216
vn 0.3216 0.5418 -0.7765
vn -0.3216 0.5418 -0.7765
vn -0.7765 0.5418 0.3216
vn 0.3216 0.5418 0.7765
vn 0.7765 0.5418 -0.3216
vn -0.7765 0.5418 -0.3216
vn -0.8443 -0.4061 -0.3497
vn -0.1391 0.9316 0.3359
vn 0.3359 0.9316 0.1391
vn 0.1391 0.9316 -0.3359
vn -0.1391 0.9316 -0.3359
vn -0.3359 0.9316 0.1391
vn 0.1391 0.9316 0.3359
vn 0.3359 0.9316 -0.1391
vn 0.3827 -0.0000 0.9239
vn -0.3497 -0.4061 0.8443
vn 0.8443 -0.4061 0.3497
vn 0.3497 -0.4061 -0.8443
vn -0.3497 -0.4061 -0.8443
vn -0.8443 -0.4061 0.3497
vn 0.3497 -0.4061 0.8443
vn 0.8443 -0.4061 -0.3497
vn -0.1420 0.9286 -0.3427
vn 0.9239 -0.0000 -0.3827
vn -0.9239 -0.0000 -0.3827
vn -0.3827 -0.0000 0.9239
vn 0.9239 -0.0000 0.3827
vn 0.3827 -0.0000 -0.9239
vn -0.3827 -0.0000 -0.9239
vn -0.9239 -0.0000 0.3827
vn -0.0000 1.0000 -0.0000
vn -0.3427 0.9286 0.1420
vn 0.1420 0.9286 0.3427
vn 0.3427 0.9286 -0.1420
vn -0.3427 0.9286 -0.1420
vn -0.1420 0.9286 0.3427
vn 0.3427 0.9286 0.1420
vn 0.1420 0.9286 -0.3427
vn 0.6848 0.6713 0.2837
vn 0.3079 0.5938 0.7434
vn 0.9210 0.1111 0.3734
vn 0.3547 0.2105 0.9110
vn 0.1236 0.9464 0.2984
vn -0.1382 0.9326 0.3335
vn 0.3335 0.9326 0.1381
vn 0.1382 0.9326 -0.3335
vt 1.000000 1.000000
vt 0.875000 0.500000
vt 1.000000 0.500000
vt 0.750000 1.000000
vt 0.750000 0.500000
vt 0.625000 0.500000
vt 0.500000 1.000000
vt 0.500000 0.500000
vt 0.375000 0.500000
vt 0.250000 1.000000
vt 0.250000 0.500000
vt 0.625000 1.000000
vt 0.125000 0.500000
vt 0.000000 1.000000
vt 0.000000 0.500000
vt 0.919706 0.080294
vt 0.580294 0.080294
vt 0.580294 0.419706
vt 0.125000 1.000000
vt 0.875000 1.000000
vt 0.375000 1.000000
vt 0.998612 1.000000
vt 0.001388 1.000000
vt 0.250000 0.490000
vt 0.010000 0.250000
vt 0.250000 0.010000
vt 0.750000 0.490000
vt 0.919706 0.419706
vt 0.990000 0.250000
vt 0.750000 0.010000
vt 0.510000 0.250000
vt 0.490000 0.250000
vt 0.419706 0.419706
vt 0.080294 0.419706
vt 0.080294 0.080294
vt 0.419706 0.080294
s 0
f 2/1/1 3/2/1 1/3/1
f 3/2/2 6/4/2 5/5/2
f 6/4/3 7/6/3 5/5/3
f 7/6/4 10/7/4 9/8/4
f 10/7/5 11/9/5 9/8/5
f 11/9/6 14/10/6 13/11/6
f 8/12/7 21/7/7 10/7/7
f 14/10/8 15/13/8 13/11/8
f 15/13/9 2/14/9 1/15/9
f 7/16/10 11/17/10 15/18/10
f 17/14/11 32/19/11 25/14/11
f 16/19/12 23/10/12 24/19/12
f 4/20/13 19/4/13 6/4/13
f 12/21/14 21/7/14 22/21/14
f 16/19/15 17/14/15 2/14/15
f 4/20/16 17/1/16 18/20/16
f 8/12/17 19/4/17 20/12/17
f 12/21/18 23/10/18 14/10/18
f 30/21/19 37/7/19 38/21/19
f 23/10/20 30/21/20 31/10/20
f 21/7/21 28/12/21 29/7/21
f 19/4/22 26/20/22 27/4/22
f 23/10/23 32/19/23 24/19/23
f 21/7/24 30/21/24 22/21/24
f 19/4/25 28/12/25 20/12/25
f 17/1/26 26/20/26 18/20/26
f 40/19/27 47/10/27 48/19/27
f 28/12/28 35/4/28 36/12/28
f 26/20/29 33/1/29 34/20/29
f 32/19/30 33/14/30 25/14/30
f 30/21/31 39/10/31 31/10/31
f 29/7/32 36/12/32 37/7/32
f 26/20/33 35/4/33 27/4/33
f 32/19/34 39/10/34 40/19/34
f 46/21/35 55/10/35 47/10/35
f 38/21/36 45/7/36 46/21/36
f 35/4/37 44/12/37 36/12/37
f 34/20/38 41/22/38 42/20/38
f 40/19/39 41/23/39 33/14/39
f 38/21/40 47/10/40 39/10/40
f 36/12/41 45/7/41 37/7/41
f 34/20/42 43/4/42 35/4/42
f 49/1/43 58/20/43 50/20/43
f 44/12/44 53/7/44 45/7/44
f 42/20/45 51/4/45 43/4/45
f 47/10/46 56/19/46 48/19/46
f 45/7/47 54/21/47 46/21/47
f 43/4/48 52/12/48 44/12/48
f 41/22/49 50/20/49 42/20/49
f 48/19/50 49/14/50 41/23/50
f 59/4/51 66/20/51 67/4/51
f 56/19/52 57/14/52 49/14/52
f 54/21/53 63/10/53 55/10/53
f 52/12/54 61/7/54 53/7/54
f 50/20/55 59/4/55 51/4/55
f 55/10/56 64/19/56 56/19/56
f 53/7/57 62/21/57 54/21/57
f 51/4/58 60/12/58 52/12/58
f 72/19/59 73/14/59 65/14/59
f 63/10/60 72/19/60 64/19/60
f 61/7/61 70/21/61 62/21/61
f 59/4/62 68/12/62 60/12/62
f 57/1/63 66/20/63 58/20/63
f 57/14/64 72/19/64 65/14/64
f 63/10/65 70/21/65 71/10/65
f 61/7/66 68/12/66 69/7/66
f 78/21/67 85/7/67 86/21/67
f 70/21/68 79/10/68 71/10/68
f 68/12/69 77/7/69 69/7/69
f 66/20/70 75/4/70 67/4/70
f 72/19/71 79/10/71 80/19/71
f 70/21/72 77/7/72 78/21/72
f 68/12/73 75/4/73 76/12/73
f 66/20/74 73/1/74 74/20/74
f 88/19/75 95/10/75 96/19/75
f 76/12/76 83/4/76 84/12/76
f 73/1/77 82/20/77 74/20/77
f 80/19/78 81/14/78 73/14/78
f 78/21/79 87/10/79 79/10/79
f 76/12/80 85/7/80 77/7/80
f 74/20/81 83/4/81 75/4/81
f 80/19/82 87/10/82 88/19/82
f 95/10/83 104/19/83 96/19/83
f 85/7/84 94/21/84 86/21/84
f 83/4/85 92/12/85 84/12/85
f 82/20/86 89/1/86 90/20/86
f 81/14/87 96/19/87 89/14/87
f 86/21/88 95/10/88 87/10/88
f 84/12/89 93/7/89 85/7/89
f 82/20/90 91/4/90 83/4/90
f 100/12/91 109/7/91 101/7/91
f 93/7/92 102/21/92 94/21/92
f 91/4/93 100/12/93 92/12/93
f 90/20/94 97/1/94 98/20/94
f 89/14/95 104/19/95 97/14/95
f 94/21/96 103/10/96 95/10/96
f 92/12/97 101/7/97 93/7/97
f 91/4/98 98/20/98 99/4/98
f 112/19/99 113/14/99 105/14/99
f 99/4/100 106/20/100 107/4/100
f 104/19/101 111/10/101 112/19/101
f 101/7/102 110/21/102 102/21/102
f 99/4/103 108/12/103 100/12/103
f 98/20/104 105/1/104 106/20/104
f 97/14/105 112/19/105 105/14/105
f 102/21/106 111/10/106 103/10/106
f 113/24/107 119/25/107 117/26/107
f 110/21/108 119/10/108 111/10/108
f 108/12/109 117/7/109 109/7/109
f 106/20/110 115/4/110 107/4/110
f 112/19/111 119/10/111 120/19/111
f 110/21/112 117/7/112 118/21/112
f 108/12/113 115/4/113 116/12/113
f 106/20/114 113/1/114 114/20/114
f 2/1/1 4/20/1 3/2/1
f 3/2/2 4/20/2 6/4/2
f 6/4/3 8/12/3 7/6/3
f 7/6/4 8/12/4 10/7/4
f 10/7/5 12/21/5 11/9/5
f 11/9/6 12/21/6 14/10/6
f 8/12/7 20/12/7 21/7/7
f 14/10/8 16/19/8 15/13/8
f 15/13/9 16/19/9 2/14/9
f 15/18/10 1/27/10 3/28/10
f 3/28/10 5/29/10 7/16/10
f 7/16/10 9/30/10 11/17/10
f 11/17/10 13/31/10 15/18/10
f 15/18/10 3/28/10 7/16/10
f 17/14/11 24/19/11 32/19/11
f 16/19/12 14/10/12 23/10/12
f 4/20/13 18/20/13 19/4/13
f 12/21/14 10/7/14 21/7/14
f 16/19/15 24/19/15 17/14/15
f 4/20/16 2/1/16 17/1/16
f 8/12/17 6/4/17 19/4/17
f 12/21/18 22/21/18 23/10/18
f 30/21/19 29/7/19 37/7/19
f 23/10/20 22/21/20 30/21/20
f 21/7/21 20/12/21 28/12/21
f 19/4/22 18/20/22 26/20/22
f 23/10/23 31/10/23 32/19/23
f 21/7/24 29/7/24 30/21/24
f 19/4/25 27/4/25 28/12/25
f 17/1/26 25/1/26 26/20/26
f 40/19/27 39/10/27 47/10/27
f 28/12/115 27/4/115 35/4/115
f 26/20/29 25/1/29 33/1/29
f 32/19/30 40/19/30 33/14/30
f 30/21/31 38/21/31 39/10/31
f 29/7/116 28/12/116 36/12/116
f 26/20/33 34/20/33 35/4/33
f 32/19/34 31/10/34 39/10/34
f 46/21/35 54/21/35 55/10/35
f 38/21/36 37/7/36 45/7/36
f 35/4/117 43/4/117 44/12/117
f 34/20/38 33/1/38 41/22/38
f 40/19/39 48/19/39 41/23/39
f 38/21/40 46/21/40 47/10/40
f 36/12/118 44/12/118 45/7/118
f 34/20/42 42/20/42 43/4/42
f 49/1/43 57/1/43 58/20/43
f 44/12/119 52/12/119 53/7/119
f 42/20/45 50/20/45 51/4/45
f 47/10/46 55/10/46 56/19/46
f 45/7/120 53/7/120 54/21/120
f 43/4/121 51/4/121 52/12/121
f 41/22/122 49/1/122 50/20/122
f 48/19/50 56/19/50 49/14/50
f 59/4/51 58/20/51 66/20/51
f 56/19/52 64/19/52 57/14/52
f 54/21/53 62/21/53 63/10/53
f 52/12/54 60/12/54 61/7/54
f 50/20/55 58/20/55 59/4/55
f 55/10/56 63/10/56 64/19/56
f 53/7/57 61/7/57 62/21/57
f 51/4/58 59/4/58 60/12/58
f 72/19/59 80/19/59 73/14/59
f 63/10/60 71/10/60 72/19/60
f 61/7/61 69/7/61 70/21/61
f 59/4/62 67/4/62 68/12/62
f 57/1/63 65/1/63 66/20/63
f 57/14/64 64/19/64 72/19/64
f 63/10/65 62/21/65 70/21/65
f 61/7/66 60/12/66 68/12/66
f 78/21/67 77/7/67 85/7/67
f 70/21/68 78/21/68 79/10/68
f 68/12/69 76/12/69 77/7/69
f 66/20/70 74/20/70 75/4/70
f 72/19/71 71/10/71 79/10/71
f 70/21/72 69/7/72 77/7/72
f 68/12/73 67/4/73 75/4/73
f 66/20/74 65/1/74 73/1/74
f 88/19/75 87/10/75 95/10/75
f 76/12/76 75/4/76 83/4/76
f 73/1/77 81/1/77 82/20/77
f 80/19/78 88/19/78 81/14/78
f 78/21/79 86/21/79 87/10/79
f 76/12/80 84/12/80 85/7/80
f 74/20/81 82/20/81 83/4/81
f 80/19/82 79/10/82 87/10/82
f 95/10/83 103/10/83 104/19/83
f 85/7/84 93/7/84 94/21/84
f 83/4/85 91/4/85 92/12/85
f 82/20/86 81/1/86 89/1/86
f 81/14/87 88/19/87 96/19/87
f 86/21/88 94/21/88 95/10/88
f 84/12/89 92/12/89 93/7/89
f 82/20/90 90/20/90 91/4/90
f 100/12/91 108/12/91 109/7/91
f 93/7/92 101/7/92 102/21/92
f 91/4/93 99/4/93 100/12/93
f 90/20/94 89/1/94 97/1/94
f 89/14/95 96/19/95 104/19/95
f 94/21/96 102/21/96 103/10/96
f 92/12/97 100/12/97 101/7/97
f 91/4/98 90/20/98 98/20/98
f 112/19/99 120/19/99 113/14/99
f 99/4/100 98/20/100 106/20/100
f 104/19/101 103/10/101 111/10/101
f 101/7/102 109/7/102 110/21/102
f 99/4/103 107/4/103 108/12/103
f 98/20/104 97/1/104 105/1/104
f 97/14/105 104/19/105 112/19/105
f 102/21/106 110/21/106 111/10/106
f 115/32/107 114/33/107 113/24/107
f 113/24/107 120/34/107 119/25/107
f 119/25/107 118/35/107 117/26/107
f 117/26/107 116/36/107 115/32/107
f 115/32/107 113/24/107 117/26/107
f 110/21/108 118/21/108 119/10/108
f 108/12/109 116/12/109 117/7/109
f 106/20/110 114/20/110 115/4/110
f 112/19/111 111/10/111 119/10/111
f 110/21/112 109/7/112 117/7/112
f 108/12/113 107/4/113 115/4/113
f 106/20/114 105/1/114 113/1/114
