# Blender 4.0.2
# www.blender.org
mtllib rook.mtl
o Cylinder.002
v 0.000000 0.000036 -0.493722
v 0.000000 0.219088 -0.340029
v 0.349114 0.000036 -0.349114
v 0.240437 0.219088 -0.240437
v 0.493722 0.000036 -0.000000
v 0.340029 0.219088 -0.000000
v 0.349114 0.000036 0.349114
v 0.240437 0.219088 0.240437
v 0.000000 0.000036 0.493722
v 0.000000 0.219088 0.340029
v -0.349114 0.000036 0.349114
v -0.240437 0.219088 0.240437
v -0.493722 0.000036 -0.000000
v -0.340029 0.219088 -0.000000
v -0.349114 0.000036 -0.349114
v -0.240437 0.219088 -0.240437
v 0.000000 0.257030 -0.278303
v 0.196790 0.257030 -0.196790
v 0.278303 0.257030 -0.000000
v 0.196790 0.257030 0.196790
v 0.000000 0.257030 0.278303
v -0.196790 0.257030 0.196790
v -0.278303 0.257030 -0.000000
v -0.196790 0.257030 -0.196790
v 0.000000 0.384253 -0.468427
v 0.331228 0.384253 -0.331228
v 0.468427 0.384253 -0.000000
v 0.331228 0.384253 0.331228
v 0.000000 0.384253 0.468427
v -0.331228 0.384253 0.331228
v -0.468427 0.384253 -0.000000
v -0.331228 0.384253 -0.331228
v 0.000000 0.506408 -0.353428
v 0.249911 0.506408 -0.249911
v 0.353428 0.506408 -0.000000
v 0.249911 0.506408 0.249911
v 0.000000 0.506408 0.353428
v -0.249911 0.506408 0.249911
v -0.353428 0.506408 -0.000000
v -0.249911 0.506408 -0.249911
v 0.000000 0.640519 -0.294949
v 0.208560 0.640519 -0.208560
v 0.294949 0.640519 -0.000000
v 0.208560 0.640519 0.208560
v 0.000000 0.640519 0.294949
v -0.208560 0.640519 0.208560
v -0.294949 0.640519 -0.000000
v -0.208560 0.640519 -0.208560
v 0.000000 1.248566 -0.264768
v 0.187219 1.248566 -0.187219
v 0.264768 1.248566 -0.000000
v 0.187219 1.248566 0.187219
v 0.000000 1.248566 0.264768
v -0.187219 1.248566 0.187219
v -0.264768 1.248566 -0.000000
v -0.187219 1.248566 -0.187219
v 0.000000 1.352688 -0.355625
v 0.251465 1.352688 -0.251465
v 0.355625 1.352688 -0.000000
v 0.251465 1.352688 0.251465
v 0.000000 1.352688 0.355625
v -0.251465 1.352688 0.251465
v -0.355625 1.352688 -0.000000
v -0.251465 1.352688 -0.251465
v 0.000000 1.570460 -0.355625
v 0.251465 1.570460 -0.251465
v 0.355625 1.570460 -0.000000
v 0.251465 1.570460 0.251465
v 0.000000 1.570460 0.355625
v -0.251465 1.570460 0.251465
v -0.355625 1.570460 -0.000000
v -0.251465 1.570460 -0.251465
v 0.000000 1.571973 -0.241651
v 0.170873 1.571973 -0.170873
v 0.241651 1.571973 -0.000000
v 0.170873 1.571973 0.170873
v 0.000000 1.571973 0.241651
v -0.170873 1.571973 0.170873
v -0.241651 1.571973 -0.000000
v -0.170873 1.571973 -0.170873
v -0.011751 1.586147 -0.344415
v -0.235229 1.586147 -0.251848
v -0.011751 1.587492 -0.243126
v -0.163607 1.587492 -0.180225
v -0.011751 1.679670 -0.344415
v -0.235229 1.679670 -0.251848
v -0.011751 1.681015 -0.243126
v -0.163607 1.681015 -0.180225
v -0.024188 1.696271 -0.328488
v -0.214639 1.696271 -0.249601
v -0.024188 1.697416 -0.242168
v -0.153601 1.697416 -0.188563
v -0.251879 1.585209 0.233911
v -0.343505 1.585209 0.012705
v -0.180984 1.586540 0.163017
v -0.243246 1.586540 0.012705
v -0.251879 1.679874 0.233911
v -0.343505 1.679874 0.012705
v -0.180984 1.681205 0.163017
v -0.243246 1.681205 0.012705
v -0.252232 1.695012 0.218941
v -0.333169 1.695012 0.023540
v -0.189608 1.696187 0.156317
v -0.244606 1.696187 0.023540
v 0.232757 1.587791 0.251906
v 0.013540 1.587791 0.342708
v 0.162500 1.589110 0.181649
v 0.013540 1.589110 0.243350
v 0.232757 1.681872 0.251906
v 0.013540 1.681872 0.342708
v 0.162500 1.683191 0.181649
v 0.013540 1.683191 0.243350
v 0.215569 1.695946 0.252311
v 0.025980 1.695946 0.330841
v 0.154808 1.697086 0.191550
v 0.025980 1.697086 0.244912
v 0.252040 1.592080 -0.227069
v 0.338781 1.592080 -0.017657
v 0.184926 1.593340 -0.159955
v 0.243867 1.593340 -0.017657
v 0.252040 1.680381 -0.227069
v 0.338781 1.680381 -0.017657
v 0.184926 1.681641 -0.159955
v 0.243867 1.681641 -0.017657
v 0.252506 1.696619 -0.207281
v 0.325119 1.696619 -0.031979
v 0.196324 1.697674 -0.151099
v 0.245665 1.697674 -0.031979
vn 0.3211 0.5439 -0.7753
vn 0.7753 0.5439 -0.3211
vn 0.7753 0.5439 0.3211
vn 0.3211 0.5439 0.7753
vn -0.3211 0.5439 0.7753
vn -0.7753 0.5439 0.3211
vn 0.5118 0.8326 -0.2120
vn -0.7753 0.5439 -0.3211
vn -0.3211 0.5439 -0.7753
vn -0.0000 -1.0000 -0.0000
vn -0.5419 -0.8099 0.2245
vn -0.2120 0.8326 0.5118
vn -0.2120 0.8326 -0.5118
vn 0.2120 0.8326 -0.5118
vn 0.5118 0.8326 0.2120
vn -0.5118 0.8326 0.2120
vn 0.2120 0.8326 0.5118
vn -0.5118 0.8326 -0.2120
vn 0.2887 0.6563 -0.6971
vn 0.2245 -0.8099 0.5419
vn 0.5419 -0.8099 -0.2245
vn -0.5419 -0.8099 -0.2245
vn -0.2245 -0.8099 0.5419
vn 0.5419 -0.8099 0.2245
vn 0.2245 -0.8099 -0.5419
vn -0.2245 -0.8099 -0.5419
vn -0.8570 0.3737 -0.3550
vn -0.2887 0.6563 -0.6971
vn -0.6971 0.6563 0.2887
vn 0.2887 0.6563 0.6971
vn 0.6971 0.6563 -0.2887
vn -0.6971 0.6563 -0.2887
vn -0.2887 0.6563 0.6971
vn 0.6971 0.6563 0.2887
vn 0.9229 0.0458 -0.3823
vn -0.3550 0.3737 0.8570
vn 0.8570 0.3737 0.3550
vn 0.3550 0.3737 -0.8570
vn -0.3550 0.3737 -0.8570
vn -0.8570 0.3737 0.3550
vn 0.3550 0.3737 0.8570
vn 0.8570 0.3737 -0.3550
vn -0.2979 -0.6276 -0.7193
vn -0.9229 0.0458 -0.3823
vn -0.3823 0.0458 0.9229
vn 0.9229 0.0458 0.3823
vn 0.3823 0.0458 -0.9229
vn -0.3823 0.0458 -0.9229
vn -0.9229 0.0458 0.3823
vn 0.3823 0.0458 0.9229
vn 0.9239 -0.0000 0.3827
vn -0.7193 -0.6276 0.2979
vn 0.2979 -0.6276 0.7193
vn 0.7193 -0.6276 -0.2979
vn -0.7193 -0.6276 -0.2979
vn -0.2979 -0.6276 0.7193
vn 0.7193 -0.6276 0.2979
vn 0.2979 -0.6276 -0.7193
vn 0.3827 -0.0000 -0.9239
vn -0.3827 -0.0000 -0.9239
vn -0.9239 -0.0000 0.3827
vn 0.3827 -0.0000 0.9239
vn 0.9239 -0.0000 -0.3827
vn -0.9239 -0.0000 -0.3827
vn -0.3827 -0.0000 0.9239
vn -0.0000 1.0000 -0.0000
vn -0.0133 0.9999 -0.0055
vn -0.0055 0.9999 0.0133
vn 0.0133 0.9999 0.0055
vn 0.0055 0.9999 -0.0133
vn 0.3580 0.3532 0.8643
vn 0.7976 0.6032 -0.0080
vn -0.3585 0.3499 -0.8655
vn -0.5696 0.6032 0.5583
vn -0.7071 -0.0000 0.7071
vn 1.0000 -0.0000 -0.0000
vn -0.3282 0.5143 -0.7923
vn 0.3724 0.2299 0.8991
vn -0.5602 0.6206 0.5486
vn 0.7966 0.6045 -0.0080
vn -0.0055 0.9999 -0.0133
vn -0.0087 0.6567 -0.7541
vn -0.8489 0.3947 0.3516
vn 0.8472 0.3988 -0.3509
vn 0.5271 0.6567 0.5394
vn 0.7071 -0.0000 0.7071
vn -0.0000 -0.0000 -1.0000
vn 0.5677 0.5855 0.5787
vn -0.8701 0.3361 0.3604
vn 0.8691 0.3392 -0.3600
vn -0.0078 0.5855 -0.8106
vn -0.0133 0.9999 0.0055
vn -0.7850 0.6194 0.0082
vn -0.3560 0.3666 -0.8596
vn 0.3566 0.3630 0.8609
vn 0.5609 0.6194 -0.5493
vn 0.7071 -0.0000 -0.7071
vn -1.0000 -0.0000 -0.0000
vn -0.7455 0.6664 0.0088
vn -0.3494 0.4076 -0.8436
vn 0.3502 0.4033 0.8454
vn 0.5334 0.6664 -0.5209
vn 0.0055 0.9999 0.0133
vn 0.0084 0.6365 0.7713
vn -0.5394 0.6365 -0.5513
vn 0.8556 0.3772 -0.3544
vn -0.8542 0.3810 0.3538
vn -0.7071 -0.0000 -0.7071
vn -0.0000 -0.0000 1.0000
vn 0.0088 0.6656 0.7463
vn -0.8439 0.4069 0.3496
vn 0.8457 0.4026 -0.3503
vn -0.5214 0.6656 -0.5339
vn -0.0133 -0.9999 0.0055
vn 0.0133 0.9999 -0.0055
vt 1.000000 1.000000
vt 0.875000 0.500000
vt 1.000000 0.500000
vt 0.875000 1.000000
vt 0.750000 0.500000
vt 0.750000 1.000000
vt 0.625000 0.500000
vt 0.500000 1.000000
vt 0.500000 0.500000
vt 0.375000 0.500000
vt 0.250000 1.000000
vt 0.250000 0.500000
vt 0.125000 0.500000
vt 0.000000 1.000000
vt 0.000000 0.500000
vt 0.919706 0.080294
vt 0.580294 0.080294
vt 0.580294 0.419706
vt 0.375000 1.000000
vt 0.125000 1.000000
vt 0.625000 1.000000
vt 0.010000 0.250000
vt 0.250000 0.010000
vt 0.490000 0.250000
vt 0.750000 0.490000
vt 0.919706 0.419706
vt 0.990000 0.250000
vt 0.750000 0.010000
vt 0.510000 0.250000
vt 0.419706 0.419706
vt 0.250000 0.490000
vt 0.080294 0.419706
vt 0.080294 0.080294
vt 0.419706 0.080294
vt 0.000000 0.000000
s 0
f 2/1/1 3/2/1 1/3/1
f 4/4/2 5/5/2 3/2/2
f 6/6/3 7/7/3 5/5/3
f 7/7/4 10/8/4 9/9/4
f 10/8/5 11/10/5 9/9/5
f 11/10/6 14/11/6 13/12/6
f 6/6/7 18/4/7 19/6/7
f 14/11/8 15/13/8 13/12/8
f 15/13/9 2/14/9 1/15/9
f 7/16/10 11/17/10 15/18/10
f 22/19/11 31/11/11 23/11/11
f 10/8/12 22/19/12 12/19/12
f 16/20/13 17/14/13 2/14/13
f 2/1/14 18/4/14 4/4/14
f 6/6/15 20/21/15 8/21/15
f 12/19/16 23/11/16 14/11/16
f 10/8/17 20/21/17 21/8/17
f 14/11/18 24/20/18 16/20/18
f 25/1/19 34/4/19 26/4/19
f 20/21/20 29/8/20 21/8/20
f 18/4/21 27/6/21 19/6/21
f 23/11/22 32/20/22 24/20/22
f 22/19/23 29/8/23 30/19/23
f 20/21/24 27/6/24 28/21/24
f 18/4/25 25/1/25 26/4/25
f 24/20/26 25/14/26 17/14/26
f 39/11/27 48/20/27 40/20/27
f 32/20/28 33/14/28 25/14/28
f 30/19/29 39/11/29 31/11/29
f 28/21/30 37/8/30 29/8/30
f 26/4/31 35/6/31 27/6/31
f 31/11/32 40/20/32 32/20/32
f 29/8/33 38/19/33 30/19/33
f 27/6/34 36/21/34 28/21/34
f 42/4/35 51/6/35 43/6/35
f 37/8/36 46/19/36 38/19/36
f 35/6/37 44/21/37 36/21/37
f 33/1/38 42/4/38 34/4/38
f 40/20/39 41/14/39 33/14/39
f 38/19/40 47/11/40 39/11/40
f 36/21/41 45/8/41 37/8/41
f 34/4/42 43/6/42 35/6/42
f 56/20/43 57/14/43 49/14/43
f 47/11/44 56/20/44 48/20/44
f 45/8/45 54/19/45 46/19/45
f 43/6/46 52/21/46 44/21/46
f 41/1/47 50/4/47 42/4/47
f 48/20/48 49/14/48 41/14/48
f 46/19/49 55/11/49 47/11/49
f 44/21/50 53/8/50 45/8/50
f 59/6/51 68/21/51 60/21/51
f 54/19/52 63/11/52 55/11/52
f 52/21/53 61/8/53 53/8/53
f 50/4/54 59/6/54 51/6/54
f 56/20/55 63/11/55 64/20/55
f 54/19/56 61/8/56 62/19/56
f 52/21/57 59/6/57 60/21/57
f 50/4/58 57/1/58 58/4/58
f 57/1/59 66/4/59 58/4/59
f 64/20/60 65/14/60 57/14/60
f 62/19/61 71/11/61 63/11/61
f 60/21/62 69/8/62 61/8/62
f 58/4/63 67/6/63 59/6/63
f 63/11/64 72/20/64 64/20/64
f 61/8/65 70/19/65 62/19/65
f 79/22/66 77/23/66 75/24/66
f 71/11/67 80/20/67 72/20/67
f 69/8/68 78/19/68 70/19/68
f 67/6/69 76/21/69 68/21/69
f 65/1/70 74/4/70 66/4/70
f 2/1/1 4/4/1 3/2/1
f 4/4/2 6/6/2 5/5/2
f 6/6/3 8/21/3 7/7/3
f 7/7/4 8/21/4 10/8/4
f 10/8/5 12/19/5 11/10/5
f 11/10/6 12/19/6 14/11/6
f 6/6/7 4/4/7 18/4/7
f 14/11/8 16/20/8 15/13/8
f 15/13/9 16/20/9 2/14/9
f 15/18/10 1/25/10 3/26/10
f 3/26/10 5/27/10 7/16/10
f 7/16/10 9/28/10 11/17/10
f 11/17/10 13/29/10 15/18/10
f 15/18/10 3/26/10 7/16/10
f 22/19/11 30/19/11 31/11/11
f 10/8/12 21/8/12 22/19/12
f 16/20/13 24/20/13 17/14/13
f 2/1/14 17/1/14 18/4/14
f 6/6/15 19/6/15 20/21/15
f 12/19/16 22/19/16 23/11/16
f 10/8/17 8/21/17 20/21/17
f 14/11/18 23/11/18 24/20/18
f 25/1/19 33/1/19 34/4/19
f 20/21/20 28/21/20 29/8/20
f 18/4/21 26/4/21 27/6/21
f 23/11/22 31/11/22 32/20/22
f 22/19/23 21/8/23 29/8/23
f 20/21/24 19/6/24 27/6/24
f 18/4/25 17/1/25 25/1/25
f 24/20/26 32/20/26 25/14/26
f 39/11/27 47/11/27 48/20/27
f 32/20/28 40/20/28 33/14/28
f 30/19/29 38/19/29 39/11/29
f 28/21/30 36/21/30 37/8/30
f 26/4/31 34/4/31 35/6/31
f 31/11/32 39/11/32 40/20/32
f 29/8/33 37/8/33 38/19/33
f 27/6/34 35/6/34 36/21/34
f 42/4/35 50/4/35 51/6/35
f 37/8/36 45/8/36 46/19/36
f 35/6/37 43/6/37 44/21/37
f 33/1/38 41/1/38 42/4/38
f 40/20/39 48/20/39 41/14/39
f 38/19/40 46/19/40 47/11/40
f 36/21/41 44/21/41 45/8/41
f 34/4/42 42/4/42 43/6/42
f 56/20/43 64/20/43 57/14/43
f 47/11/44 55/11/44 56/20/44
f 45/8/45 53/8/45 54/19/45
f 43/6/46 51/6/46 52/21/46
f 41/1/47 49/1/47 50/4/47
f 48/20/48 56/20/48 49/14/48
f 46/19/49 54/19/49 55/11/49
f 44/21/50 52/21/50 53/8/50
f 59/6/51 67/6/51 68/21/51
f 54/19/52 62/19/52 63/11/52
f 52/21/53 60/21/53 61/8/53
f 50/4/54 58/4/54 59/6/54
f 56/20/55 55/11/55 63/11/55
f 54/19/56 53/8/56 61/8/56
f 52/21/57 51/6/57 59/6/57
f 50/4/58 49/1/58 57/1/58
f 57/1/59 65/1/59 66/4/59
f 64/20/60 72/20/60 65/14/60
f 62/19/61 70/19/61 71/11/61
f 60/21/62 68/21/62 69/8/62
f 58/4/63 66/4/63 67/6/63
f 63/11/64 71/11/64 72/20/64
f 61/8/65 69/8/65 70/19/65
f 75/24/66 74/30/66 73/31/66
f 73/31/66 80/32/66 79/22/66
f 79/22/66 78/33/66 77/23/66
f 77/23/66 76/34/66 75/24/66
f 75/24/66 73/31/66 79/22/66
f 71/11/67 79/11/67 80/20/67
f 69/8/68 77/8/68 78/19/68
f 67/6/69 75/6/69 76/21/69
f 65/1/70 73/1/70 74/4/70
f 80/32/71 83/31/71 84/32/71
f 73/1/72 81/1/72 83/1/72
f 65/14/73 82/20/73 81/14/73
f 80/20/74 82/20/74 72/20/74
f 84/20/75 86/20/75 82/20/75
f 83/1/76 85/1/76 87/1/76
f 82/20/60 85/14/60 81/14/60
f 83/31/62 88/32/62 84/32/62
f 85/14/77 90/20/77 89/14/77
f 87/31/78 92/32/78 88/32/78
f 88/20/79 90/20/79 86/20/79
f 87/1/80 89/1/80 91/1/80
f 89/14/81 92/32/81 91/31/81
f 79/11/82 94/11/82 96/11/82
f 71/11/83 93/19/83 94/11/83
f 79/22/84 95/33/84 78/33/84
f 78/19/85 93/19/85 70/19/85
f 95/19/86 97/19/86 93/19/86
f 93/19/61 98/11/61 94/11/61
f 96/22/63 99/33/63 95/33/63
f 96/11/87 98/11/87 100/11/87
f 99/19/88 101/19/88 97/19/88
f 98/11/89 101/19/89 102/11/89
f 99/33/90 104/22/90 103/33/90
f 100/11/91 102/11/91 104/11/91
f 102/11/92 103/33/92 104/11/92
f 77/8/93 106/8/93 108/8/93
f 77/23/94 107/34/94 76/34/94
f 69/8/95 105/21/95 106/8/95
f 76/21/96 105/21/96 68/21/96
f 107/21/97 109/21/97 105/21/97
f 108/8/98 110/8/98 112/8/98
f 108/23/60 111/34/60 107/34/60
f 105/21/62 110/8/62 106/8/62
f 112/8/99 114/8/99 116/8/99
f 111/34/100 116/23/100 115/34/100
f 109/21/101 114/8/101 110/8/101
f 111/21/102 113/21/102 109/21/102
f 114/8/103 115/34/103 116/23/103
f 75/6/104 118/6/104 120/6/104
f 74/4/105 117/4/105 66/4/105
f 66/4/106 118/6/106 67/6/106
f 75/24/107 119/30/107 74/30/107
f 118/6/63 121/4/63 122/6/63
f 119/4/108 121/4/108 117/4/108
f 120/6/109 122/6/109 124/6/109
f 120/24/61 123/30/61 119/30/61
f 124/6/110 126/6/110 128/6/110
f 123/30/111 128/24/111 127/30/111
f 122/6/112 125/4/112 126/6/112
f 123/4/113 125/4/113 121/4/113
f 127/30/114 126/6/114 128/24/114
f 127/35/115 128/35/115 125/35/115
f 128/35/115 126/35/115 125/35/115
f 80/32/71 73/31/71 83/31/71
f 73/1/72 65/1/72 81/1/72
f 65/14/73 72/20/73 82/20/73
f 80/20/74 84/20/74 82/20/74
f 84/20/75 88/20/75 86/20/75
f 83/1/76 81/1/76 85/1/76
f 82/20/60 86/20/60 85/14/60
f 83/31/62 87/31/62 88/32/62
f 85/14/77 86/20/77 90/20/77
f 87/31/78 91/31/78 92/32/78
f 88/20/79 92/20/79 90/20/79
f 87/1/80 85/1/80 89/1/80
f 89/14/81 90/20/81 92/32/81
f 79/11/82 71/11/82 94/11/82
f 71/11/83 70/19/83 93/19/83
f 79/22/84 96/22/84 95/33/84
f 78/19/85 95/19/85 93/19/85
f 95/19/86 99/19/86 97/19/86
f 93/19/61 97/19/61 98/11/61
f 96/22/63 100/22/63 99/33/63
f 96/11/87 94/11/87 98/11/87
f 99/19/88 103/19/88 101/19/88
f 98/11/89 97/19/89 101/19/89
f 99/33/90 100/22/90 104/22/90
f 100/11/91 98/11/91 102/11/91
f 102/11/92 101/19/92 103/33/92
f 77/8/93 69/8/93 106/8/93
f 77/23/94 108/23/94 107/34/94
f 69/8/95 68/21/95 105/21/95
f 76/21/96 107/21/96 105/21/96
f 107/21/97 111/21/97 109/21/97
f 108/8/98 106/8/98 110/8/98
f 108/23/60 112/23/60 111/34/60
f 105/21/62 109/21/62 110/8/62
f 112/8/99 110/8/99 114/8/99
f 111/34/100 112/23/100 116/23/100
f 109/21/101 113/21/101 114/8/101
f 111/21/102 115/21/102 113/21/102
f 114/8/103 113/21/103 115/34/103
f 75/6/104 67/6/104 118/6/104
f 74/4/105 119/4/105 117/4/105
f 66/4/106 117/4/106 118/6/106
f 75/24/107 120/24/107 119/30/107
f 118/6/63 117/4/63 121/4/63
f 119/4/108 123/4/108 121/4/108
f 120/6/109 118/6/109 122/6/109
f 120/24/61 124/24/61 123/30/61
f 124/6/110 122/6/110 126/6/110
f 123/30/111 124/24/111 128/24/111
f 122/6/112 121/4/112 125/4/112
f 123/4/113 127/4/113 125/4/113
f 127/30/114 125/4/114 126/6/114
